<?xml version="1.0" encoding="utf-8"?>
<!-- Generator: Adobe Illustrator 17.1.0, SVG Export Plug-In . SVG Version: 6.00 Build 0)  -->
<!DOCTYPE svg PUBLIC "-//W3C//DTD SVG 1.1//EN" "http://www.w3.org/Graphics/SVG/1.1/DTD/svg11.dtd">
<svg version="1.1" id="Layer_1" xmlns="http://www.w3.org/2000/svg" xmlns:xlink="http://www.w3.org/1999/xlink" x="0px" y="0px"
	 viewBox="0 0 186 120" enable-background="new 0 0 186 120" xml:space="preserve">
<g>
	<path fill="#FFFFFF" d="M0,46.5c0-5.3,3.4-9.6,9.7-9.6c6.3,0,9.8,4.3,9.8,9.6v7h-7.3v-8.8h-5v47.3h5v-8.8h7.3v7
		c0,5.3-3.5,9.6-9.8,9.6c-6.3,0-9.7-4.3-9.7-9.6V46.5z M25.2,37.4h7.2v27.2h5V37.4h7.3v61.8h-7.3V72h-5v27.2h-7.2V37.4z M54.1,99.2
		h7.2V71.9h5v27.3h7.3V46.5c0-5.3-3.5-9.6-9.8-9.6c-6.3,0-9.7,4.3-9.7,9.6V99.2z M61.3,44.6h5v20.1h-5V44.6z M111.5,37.4h6.8
		l2.1,30.4h1.8l1.8-30.4h7.1l-6.1,61.8h-7.6L111.5,37.4z M156.9,44.7h-12.3v20h9.8v7.3h-9.8v20h12.3v7.3h-14.5c-2.8,0-5-2.9-5-6.4
		v-49c0-3.6,2.2-6.4,5-6.4h14.5V44.7z M166.6,44.8h-5.1v-7.4h17.2v7.4h-5.1v54.4h-7V44.8z M95.3,49.2v42.7h-5V49.6l-7.2-7.2v47.7
		c0,5.3,3.4,9.6,9.7,9.6c6.3,0,9.8-4.3,9.8-9.6V41.9L95.3,49.2z"/>
</g>
<path fill="#FFFFFF" d="M103.9,1.2c0,0.1-0.1,0.3-0.3,0.3c-0.1,0-0.3-0.1-0.3-0.3c0-0.1,0.1-0.3,0.3-0.3
	C103.8,1,103.9,1.1,103.9,1.2z M107.5,2.1c-0.2,0-0.3,0.1-0.3,0.3c0,0.2,0.2,0.3,0.3,0.3c0.2,0,0.3-0.1,0.3-0.3
	C107.8,2.3,107.7,2.1,107.5,2.1z M107.3,4.4c0,0.2-0.2,0.4-0.4,0.4c-0.2,0-0.4-0.2-0.4-0.4c0-0.2,0.2-0.4,0.4-0.4
	C107.1,3.9,107.3,4.1,107.3,4.4z M106.8,6.3c0,0.3-0.2,0.6-0.6,0.6c-0.3,0-0.5-0.2-0.5-0.6c0-0.3,0.2-0.6,0.5-0.6
	C106.6,5.7,106.8,6,106.8,6.3z M106.3,8.2c0,0.4-0.3,0.6-0.6,0.6c-0.4,0-0.6-0.3-0.6-0.6c0-0.4,0.3-0.6,0.6-0.6
	C106,7.6,106.3,7.9,106.3,8.2z M105.7,10.2c0,0.4-0.3,0.7-0.7,0.7c-0.4,0-0.7-0.3-0.7-0.7c0-0.4,0.3-0.7,0.7-0.7
	C105.4,9.5,105.7,9.8,105.7,10.2z M105.2,12.1c0,0.4-0.4,0.8-0.8,0.8c-0.4,0-0.8-0.4-0.8-0.8c0-0.4,0.4-0.8,0.8-0.8
	C104.8,11.3,105.2,11.7,105.2,12.1z M104.6,14c0,0.5-0.4,0.9-0.9,0.9c-0.5,0-0.9-0.4-0.9-0.9c0-0.5,0.4-0.9,0.9-0.9
	C104.2,13.2,104.6,13.6,104.6,14z M104,16c0,0.5-0.4,0.9-0.9,0.9c-0.5,0-0.9-0.4-0.9-0.9c0-0.5,0.4-0.9,0.9-0.9
	C103.6,15.1,104,15.5,104,16z M103.4,17.9c0,0.5-0.4,0.9-0.9,0.9c-0.5,0-0.9-0.4-0.9-0.9c0-0.5,0.4-0.9,0.9-0.9
	C103,17,103.4,17.4,103.4,17.9z M102.8,19.8c0,0.5-0.4,1-1,1c-0.5,0-1-0.4-1-1c0-0.5,0.4-1,1-1C102.4,18.9,102.8,19.3,102.8,19.8z
	 M109.5,2.8c-0.2,0-0.3,0.1-0.3,0.3c0,0.2,0.1,0.3,0.3,0.3c0.2,0,0.3-0.1,0.3-0.3C109.8,2.9,109.6,2.8,109.5,2.8z M109.3,5
	c0,0.2-0.2,0.4-0.4,0.4c-0.2,0-0.4-0.2-0.4-0.4c0-0.2,0.2-0.4,0.4-0.4C109.1,4.6,109.3,4.8,109.3,5z M108.7,6.9
	c0,0.3-0.2,0.6-0.6,0.6c-0.3,0-0.5-0.2-0.5-0.6c0-0.3,0.2-0.5,0.5-0.5C108.5,6.4,108.7,6.6,108.7,6.9z M108.2,8.9
	c0,0.4-0.3,0.6-0.7,0.6c-0.4,0-0.6-0.3-0.6-0.6s0.3-0.6,0.6-0.6C107.9,8.2,108.2,8.5,108.2,8.9z M107.7,10.8c0,0.4-0.3,0.7-0.7,0.7
	c-0.4,0-0.7-0.3-0.7-0.7c0-0.4,0.3-0.7,0.7-0.7C107.3,10.1,107.7,10.4,107.7,10.8z M107.1,12.8c0,0.4-0.4,0.8-0.8,0.8
	c-0.4,0-0.8-0.4-0.8-0.8c0-0.4,0.3-0.8,0.8-0.8C106.8,12,107.1,12.3,107.1,12.8z M106.5,14.7c0,0.5-0.4,0.9-0.9,0.9
	c-0.5,0-0.9-0.4-0.9-0.9c0-0.5,0.4-0.8,0.9-0.8C106.1,13.8,106.5,14.2,106.5,14.7z M106,16.6c0,0.5-0.4,0.9-0.9,0.9
	c-0.5,0-0.9-0.4-0.9-0.9c0-0.5,0.4-0.9,0.9-0.9C105.6,15.7,106,16.1,106,16.6z M105.4,18.5c0,0.5-0.4,0.9-0.9,0.9
	c-0.5,0-0.9-0.4-0.9-0.9c0-0.5,0.4-0.9,0.9-0.9C104.9,17.6,105.4,18,105.4,18.5z M104.8,20.5c0,0.5-0.4,1-1,1c-0.5,0-1-0.4-1-1
	c0-0.5,0.4-1,1-1C104.3,19.5,104.8,19.9,104.8,20.5z M112,1.5c-0.2,0-0.3,0.1-0.3,0.3c0,0.2,0.1,0.3,0.3,0.3c0.2,0,0.3-0.1,0.3-0.3
	C112.3,1.6,112.2,1.5,112,1.5z M111.8,3.7c0,0.2-0.2,0.4-0.4,0.4c-0.2,0-0.4-0.2-0.4-0.4c0-0.2,0.2-0.4,0.4-0.4
	C111.6,3.3,111.8,3.4,111.8,3.7z M111.3,5.6c0,0.3-0.2,0.6-0.5,0.6s-0.6-0.2-0.6-0.6c0-0.3,0.2-0.6,0.6-0.6S111.3,5.3,111.3,5.6z
	 M110.8,7.6c0,0.4-0.3,0.6-0.6,0.6c-0.4,0-0.7-0.3-0.7-0.6c0-0.4,0.3-0.6,0.7-0.6C110.5,6.9,110.8,7.2,110.8,7.6z M110.2,9.5
	c0,0.4-0.3,0.7-0.7,0.7c-0.4,0-0.7-0.3-0.7-0.7c0-0.4,0.3-0.7,0.7-0.7C109.9,8.8,110.2,9.1,110.2,9.5z M109.7,11.5
	c0,0.4-0.4,0.8-0.8,0.8c-0.4,0-0.8-0.4-0.8-0.8c0-0.4,0.4-0.8,0.8-0.8C109.3,10.7,109.7,11,109.7,11.5z M109.1,13.4
	c0,0.5-0.4,0.9-0.9,0.9c-0.5,0-0.9-0.4-0.9-0.9c0-0.5,0.4-0.9,0.9-0.9C108.7,12.5,109.1,12.9,109.1,13.4z M108.5,15.3
	c0,0.5-0.4,0.9-0.9,0.9c-0.5,0-0.9-0.4-0.9-0.9c0-0.5,0.4-0.9,0.9-0.9C108.1,14.4,108.5,14.8,108.5,15.3z M107.9,17.2
	c0,0.5-0.4,0.9-0.9,0.9c-0.5,0-0.9-0.4-0.9-0.9c0-0.5,0.4-0.9,0.9-0.9C107.5,16.3,107.9,16.7,107.9,17.2z M107.3,19.2
	c0,0.5-0.4,1-1,1c-0.5,0-1-0.4-1-1c0-0.5,0.4-1,1-1C106.9,18.2,107.3,18.6,107.3,19.2z M113.9,2.1c-0.2,0-0.3,0.1-0.3,0.3
	c0,0.2,0.1,0.3,0.3,0.3c0.2,0,0.3-0.1,0.3-0.3C114.3,2.3,114.1,2.1,113.9,2.1z M113.7,4.4c0,0.2-0.2,0.4-0.4,0.4
	c-0.2,0-0.4-0.2-0.4-0.4c0-0.2,0.2-0.4,0.4-0.4C113.6,3.9,113.7,4.1,113.7,4.4z M113.2,6.3c0,0.3-0.2,0.6-0.6,0.6
	c-0.3,0-0.5-0.2-0.5-0.6c0-0.3,0.2-0.5,0.5-0.5C113,5.7,113.2,6,113.2,6.3z M112.7,8.2c0,0.4-0.3,0.6-0.6,0.6
	c-0.4,0-0.6-0.3-0.6-0.6c0-0.4,0.3-0.6,0.6-0.6C112.4,7.6,112.7,7.9,112.7,8.2z M112.1,10.2c0,0.4-0.3,0.7-0.7,0.7
	c-0.4,0-0.7-0.3-0.7-0.7c0-0.4,0.3-0.7,0.7-0.7C111.8,9.5,112.1,9.8,112.1,10.2z M111.6,12.1c0,0.4-0.4,0.8-0.8,0.8
	c-0.4,0-0.8-0.4-0.8-0.8c0-0.4,0.4-0.8,0.8-0.8C111.2,11.3,111.6,11.7,111.6,12.1z M111,14c0,0.5-0.4,0.9-0.9,0.9
	c-0.5,0-0.8-0.4-0.8-0.9c0-0.5,0.4-0.9,0.8-0.9C110.6,13.2,111,13.6,111,14z M110.4,16c0,0.5-0.4,0.9-0.9,0.9
	c-0.5,0-0.9-0.4-0.9-0.9c0-0.5,0.4-0.9,0.9-0.9C110,15.1,110.4,15.5,110.4,16z M109.8,17.9c0,0.5-0.4,0.9-0.9,0.9
	c-0.5,0-0.9-0.4-0.9-0.9c0-0.5,0.4-0.9,0.9-0.9C109.4,17,109.8,17.4,109.8,17.9z M109.3,19.8c0,0.5-0.4,1-1,1c-0.5,0-1-0.4-1-1
	c0-0.5,0.4-1,1-1C108.8,18.9,109.3,19.3,109.3,19.8z M116.3,3c0,0.2-0.2,0.4-0.4,0.4c-0.2,0-0.4-0.2-0.4-0.4c0-0.2,0.2-0.4,0.4-0.4
	C116.1,2.6,116.3,2.8,116.3,3z M115.8,5c0,0.3-0.3,0.6-0.6,0.6c-0.3,0-0.6-0.2-0.6-0.6c0-0.3,0.3-0.6,0.6-0.6
	C115.5,4.4,115.8,4.7,115.8,5z M115.3,6.9c0,0.4-0.3,0.6-0.7,0.6c-0.4,0-0.6-0.3-0.6-0.6c0-0.4,0.3-0.6,0.6-0.6
	C115,6.3,115.3,6.6,115.3,6.9z M114.7,8.9c0,0.4-0.3,0.7-0.7,0.7c-0.4,0-0.7-0.3-0.7-0.7c0-0.4,0.3-0.7,0.7-0.7
	C114.4,8.2,114.7,8.5,114.7,8.9z M114.2,10.8c0,0.4-0.4,0.8-0.8,0.8c-0.4,0-0.8-0.4-0.8-0.8c0-0.4,0.4-0.8,0.8-0.8
	C113.8,10,114.2,10.4,114.2,10.8z M113.6,12.7c0,0.5-0.4,0.9-0.9,0.9c-0.5,0-0.8-0.4-0.8-0.9c0-0.5,0.4-0.9,0.8-0.9
	C113.2,11.9,113.6,12.2,113.6,12.7z M113,14.6c0,0.5-0.4,0.9-0.9,0.9c-0.5,0-0.9-0.4-0.9-0.9c0-0.5,0.4-0.9,0.9-0.9
	C112.6,13.7,113,14.2,113,14.6z M112.4,16.6c0,0.5-0.4,0.9-0.9,0.9c-0.5,0-0.9-0.4-0.9-0.9c0-0.5,0.4-0.9,0.9-0.9
	C112,15.7,112.4,16.1,112.4,16.6z M111.8,18.5c0,0.5-0.4,1-1,1c-0.5,0-1-0.4-1-1c0-0.5,0.4-1,1-1C111.4,17.6,111.8,18,111.8,18.5z
	 M118.4,1.4c-0.2,0-0.3,0.1-0.3,0.3c0,0.2,0.1,0.3,0.3,0.3c0.2,0,0.3-0.1,0.3-0.3C118.7,1.6,118.6,1.4,118.4,1.4z M118.2,3.6
	c0,0.2-0.2,0.4-0.4,0.4s-0.4-0.2-0.4-0.4c0-0.2,0.2-0.4,0.4-0.4S118.2,3.4,118.2,3.6z M117.7,5.6c0,0.3-0.2,0.6-0.6,0.6
	c-0.3,0-0.5-0.2-0.5-0.6c0-0.3,0.2-0.5,0.5-0.5C117.5,5,117.7,5.3,117.7,5.6z M117.2,7.5c0,0.4-0.3,0.6-0.7,0.6
	c-0.4,0-0.6-0.3-0.6-0.6c0-0.4,0.3-0.6,0.6-0.6C116.9,6.9,117.2,7.2,117.2,7.5z M116.6,9.5c0,0.4-0.3,0.7-0.7,0.7
	c-0.4,0-0.7-0.3-0.7-0.7c0-0.4,0.3-0.7,0.7-0.7C116.3,8.7,116.6,9.1,116.6,9.5z M116.1,11.4c0,0.4-0.4,0.8-0.8,0.8
	c-0.4,0-0.8-0.4-0.8-0.8c0-0.4,0.4-0.8,0.8-0.8C115.7,10.6,116.1,11,116.1,11.4z M115.5,13.3c0,0.5-0.4,0.9-0.9,0.9
	c-0.5,0-0.9-0.4-0.9-0.9c0-0.5,0.4-0.9,0.9-0.9C115.1,12.5,115.5,12.8,115.5,13.3z M114.9,15.2c0,0.5-0.4,0.9-0.9,0.9
	c-0.5,0-0.9-0.4-0.9-0.9c0-0.5,0.4-0.9,0.9-0.9C114.5,14.3,114.9,14.7,114.9,15.2z M114.3,17.2c0,0.5-0.4,0.9-0.9,0.9
	c-0.5,0-0.9-0.4-0.9-0.9c0-0.5,0.4-0.9,0.9-0.9C113.9,16.2,114.3,16.7,114.3,17.2z M113.7,19.1c0,0.5-0.4,1-1,1c-0.5,0-1-0.4-1-1
	c0-0.5,0.4-1,1-1C113.3,18.1,113.7,18.6,113.7,19.1z M120.4,2c-0.2,0-0.3,0.1-0.3,0.3c0,0.2,0.1,0.3,0.3,0.3c0.2,0,0.3-0.1,0.3-0.3
	C120.7,2.1,120.5,2,120.4,2z M120.2,4.2c0,0.2-0.2,0.4-0.4,0.4c-0.2,0-0.4-0.2-0.4-0.4c0-0.2,0.2-0.4,0.4-0.4
	C120,3.7,120.2,3.9,120.2,4.2z M119.6,6.1c0,0.3-0.2,0.6-0.6,0.6c-0.3,0-0.5-0.2-0.5-0.6c0-0.3,0.2-0.6,0.5-0.6
	C119.4,5.6,119.6,5.8,119.6,6.1z M119.1,8.1c0,0.4-0.3,0.6-0.6,0.6c-0.4,0-0.6-0.3-0.6-0.6c0-0.4,0.3-0.6,0.6-0.6
	C118.8,7.4,119.1,7.7,119.1,8.1z M118.5,10c0,0.4-0.3,0.7-0.7,0.7c-0.4,0-0.7-0.3-0.7-0.7c0-0.4,0.3-0.7,0.7-0.7
	C118.2,9.3,118.5,9.6,118.5,10z M118,11.9c0,0.4-0.4,0.8-0.8,0.8c-0.4,0-0.8-0.4-0.8-0.8c0-0.4,0.4-0.8,0.8-0.8
	C117.7,11.2,118,11.5,118,11.9z M117.4,13.8c0,0.5-0.4,0.9-0.9,0.9s-0.8-0.4-0.8-0.9c0-0.5,0.4-0.9,0.8-0.9S117.4,13.4,117.4,13.8z
	 M116.8,15.8c0,0.5-0.4,0.9-0.9,0.9c-0.5,0-0.9-0.4-0.9-0.9c0-0.5,0.4-0.9,0.9-0.9C116.5,14.9,116.8,15.3,116.8,15.8z M116.3,17.7
	c0,0.5-0.4,0.9-0.9,0.9s-0.9-0.4-0.9-0.9c0-0.5,0.4-0.9,0.9-0.9S116.3,17.2,116.3,17.7z M115.7,19.7c0,0.5-0.4,1-1,1
	c-0.5,0-1-0.4-1-1c0-0.5,0.4-1,1-1C115.2,18.7,115.7,19.1,115.7,19.7z M122.8,3c0,0.2-0.2,0.4-0.4,0.4c-0.2,0-0.4-0.2-0.4-0.4
	c0-0.2,0.2-0.4,0.4-0.4C122.6,2.5,122.8,2.7,122.8,3z M122.2,4.9c0,0.3-0.2,0.6-0.5,0.6c-0.3,0-0.5-0.2-0.5-0.6
	c0-0.3,0.2-0.6,0.5-0.6C122,4.4,122.2,4.6,122.2,4.9z M121.7,6.9c0,0.4-0.3,0.6-0.6,0.6c-0.4,0-0.7-0.3-0.7-0.6
	c0-0.4,0.3-0.6,0.7-0.6C121.4,6.2,121.7,6.5,121.7,6.9z M121.1,8.8c0,0.4-0.3,0.7-0.7,0.7c-0.4,0-0.7-0.3-0.7-0.7
	c0-0.4,0.3-0.7,0.7-0.7C120.8,8.1,121.1,8.4,121.1,8.8z M120.6,10.7c0,0.4-0.3,0.8-0.8,0.8c-0.4,0-0.8-0.4-0.8-0.8
	c0-0.4,0.3-0.8,0.8-0.8C120.3,10,120.6,10.3,120.6,10.7z M120,12.7c0,0.5-0.4,0.9-0.9,0.9c-0.5,0-0.9-0.4-0.9-0.9
	c0-0.5,0.4-0.9,0.9-0.9C119.6,11.8,120,12.2,120,12.7z M119.4,14.6c0,0.5-0.4,0.9-0.9,0.9c-0.5,0-0.9-0.4-0.9-0.9
	c0-0.5,0.4-0.9,0.9-0.9C119,13.7,119.4,14.1,119.4,14.6z M118.8,16.5c0,0.5-0.4,0.9-0.9,0.9c-0.5,0-0.9-0.4-0.9-0.9
	c0-0.5,0.4-0.9,0.9-0.9C118.4,15.6,118.8,16,118.8,16.5z M118.3,18.5c0,0.5-0.4,1-1,1c-0.5,0-1-0.4-1-1c0-0.5,0.4-1,1-1
	C117.8,17.5,118.3,17.9,118.3,18.5z M124.8,1.4c-0.2,0-0.3,0.1-0.3,0.3c0,0.2,0.1,0.3,0.3,0.3c0.2,0,0.3-0.1,0.3-0.3
	C125.2,1.5,125,1.4,124.8,1.4z M124.7,3.6c0,0.2-0.2,0.4-0.4,0.4c-0.2,0-0.4-0.2-0.4-0.4c0-0.2,0.2-0.4,0.4-0.4
	C124.5,3.2,124.7,3.4,124.7,3.6z M124.1,5.5c0,0.3-0.2,0.5-0.6,0.5c-0.3,0-0.6-0.2-0.6-0.5c0-0.3,0.3-0.6,0.6-0.6
	C123.9,5,124.1,5.2,124.1,5.5z M123.6,7.5c0,0.4-0.3,0.6-0.6,0.6c-0.4,0-0.6-0.3-0.6-0.6c0-0.4,0.3-0.6,0.6-0.6
	C123.3,6.8,123.6,7.1,123.6,7.5z M123,9.4c0,0.4-0.3,0.7-0.7,0.7c-0.4,0-0.7-0.3-0.7-0.7c0-0.4,0.3-0.7,0.7-0.7
	C122.7,8.7,123,9,123,9.4z M122.5,11.4c0,0.4-0.4,0.8-0.8,0.8c-0.4,0-0.8-0.4-0.8-0.8c0-0.4,0.3-0.8,0.8-0.8
	C122.2,10.6,122.5,10.9,122.5,11.4z M121.9,13.3c0,0.5-0.4,0.9-0.9,0.9c-0.5,0-0.8-0.4-0.8-0.9c0-0.5,0.4-0.9,0.8-0.9
	C121.5,12.4,121.9,12.8,121.9,13.3z M121.3,15.2c0,0.5-0.4,0.9-0.9,0.9c-0.5,0-0.9-0.4-0.9-0.9c0-0.5,0.4-0.9,0.9-0.9
	C120.9,14.3,121.3,14.7,121.3,15.2z M126.8,1.9c-0.2,0-0.3,0.1-0.3,0.3c0,0.2,0.1,0.3,0.3,0.3c0.2,0,0.3-0.1,0.3-0.3
	C127.1,2.1,127,1.9,126.8,1.9z M126.6,4.1c0,0.2-0.2,0.4-0.4,0.4c-0.2,0-0.4-0.2-0.4-0.4c0-0.2,0.2-0.4,0.4-0.4
	C126.4,3.7,126.6,3.9,126.6,4.1z M126.1,6.1c0,0.3-0.3,0.5-0.6,0.5c-0.3,0-0.6-0.2-0.6-0.5s0.2-0.6,0.6-0.6
	C125.9,5.5,126.1,5.8,126.1,6.1z M125.6,8c0,0.4-0.3,0.6-0.7,0.6c-0.4,0-0.6-0.3-0.6-0.6c0-0.4,0.3-0.6,0.6-0.6
	C125.3,7.4,125.6,7.7,125.6,8z M125,10c0,0.4-0.3,0.7-0.7,0.7c-0.4,0-0.7-0.3-0.7-0.7c0-0.4,0.3-0.7,0.7-0.7
	C124.7,9.2,125,9.6,125,10z M124.5,11.9c0,0.4-0.4,0.8-0.8,0.8c-0.4,0-0.8-0.4-0.8-0.8c0-0.4,0.3-0.8,0.8-0.8
	C124.1,11.1,124.5,11.5,124.5,11.9z M128.7,2.6c-0.2,0-0.3,0.1-0.3,0.3c0,0.2,0.1,0.3,0.3,0.3c0.2,0,0.3-0.1,0.3-0.3
	C129,2.8,128.9,2.6,128.7,2.6z M128.5,4.9c0,0.2-0.2,0.4-0.4,0.4c-0.2,0-0.4-0.2-0.4-0.4c0-0.2,0.2-0.4,0.4-0.4
	C128.3,4.4,128.5,4.6,128.5,4.9z M128,6.8c0,0.3-0.2,0.6-0.5,0.6c-0.3,0-0.6-0.2-0.6-0.6c0-0.3,0.2-0.6,0.6-0.6
	C127.7,6.3,128,6.5,128,6.8z M127.5,8.8c0,0.4-0.3,0.6-0.6,0.6c-0.4,0-0.6-0.3-0.6-0.6c0-0.4,0.3-0.6,0.6-0.6
	C127.2,8.1,127.5,8.4,127.5,8.8z M126.9,10.7c0,0.4-0.3,0.7-0.7,0.7c-0.4,0-0.7-0.3-0.7-0.7c0-0.4,0.3-0.7,0.7-0.7
	C126.6,10,126.9,10.3,126.9,10.7z M131.2,1.3c-0.2,0-0.3,0.1-0.3,0.3c0,0.2,0.1,0.3,0.3,0.3c0.2,0,0.3-0.1,0.3-0.3
	C131.5,1.4,131.3,1.3,131.2,1.3z M131,3.5c0,0.2-0.2,0.4-0.4,0.4c-0.2,0-0.4-0.2-0.4-0.4c0-0.2,0.2-0.4,0.4-0.4
	C130.8,3.1,131,3.3,131,3.5z M130.5,5.5c0,0.3-0.2,0.5-0.5,0.5c-0.3,0-0.6-0.2-0.6-0.5c0-0.3,0.2-0.5,0.6-0.5
	C130.2,4.9,130.5,5.2,130.5,5.5z M130,7.4c0,0.4-0.3,0.6-0.6,0.6c-0.4,0-0.6-0.3-0.6-0.6c0-0.4,0.3-0.7,0.6-0.7
	C129.7,6.7,130,7,130,7.4z M133.1,1.9c-0.2,0-0.3,0.1-0.3,0.3s0.1,0.3,0.3,0.3c0.2,0,0.3-0.1,0.3-0.3S133.3,1.9,133.1,1.9z
	 M132.9,4.1c0,0.2-0.2,0.4-0.4,0.4c-0.2,0-0.4-0.2-0.4-0.4c0-0.2,0.2-0.4,0.4-0.4C132.7,3.7,132.9,3.9,132.9,4.1z M101.1,2.2
	c-0.2,0-0.3,0.1-0.3,0.3c0,0.2,0.1,0.3,0.3,0.3c0.2,0,0.3-0.1,0.3-0.3C101.4,2.3,101.3,2.2,101.1,2.2z M100.9,4.4
	c0,0.2-0.2,0.4-0.4,0.4c-0.2,0-0.4-0.2-0.4-0.4c0-0.2,0.2-0.4,0.4-0.4C100.7,4,100.9,4.2,100.9,4.4z M100.4,6.3
	c0,0.3-0.2,0.6-0.6,0.6c-0.3,0-0.6-0.2-0.6-0.6c0-0.3,0.2-0.6,0.6-0.6C100.1,5.8,100.4,6,100.4,6.3z M99.9,8.3
	c0,0.4-0.3,0.6-0.6,0.6c-0.4,0-0.6-0.3-0.6-0.6c0-0.4,0.3-0.6,0.6-0.6C99.6,7.6,99.9,7.9,99.9,8.3z M99.3,10.2
	c0,0.4-0.3,0.7-0.7,0.7c-0.4,0-0.7-0.3-0.7-0.7c0-0.4,0.3-0.7,0.7-0.7C99,9.5,99.3,9.8,99.3,10.2z M98.8,12.2c0,0.4-0.4,0.8-0.8,0.8
	c-0.4,0-0.8-0.4-0.8-0.8c0-0.4,0.4-0.8,0.8-0.8C98.4,11.4,98.8,11.7,98.8,12.2z M98.2,14.1c0,0.5-0.4,0.9-0.9,0.9
	c-0.5,0-0.8-0.4-0.8-0.9c0-0.5,0.4-0.9,0.8-0.9C97.8,13.2,98.2,13.6,98.2,14.1z M97.6,16c0,0.5-0.4,0.9-0.9,0.9
	c-0.5,0-0.9-0.4-0.9-0.9c0-0.5,0.4-0.9,0.9-0.9C97.2,15.1,97.6,15.5,97.6,16z M97,18c0,0.5-0.4,0.9-0.9,0.9c-0.5,0-0.9-0.4-0.9-0.9
	c0-0.5,0.4-0.9,0.9-0.9C96.6,17,97,17.4,97,18z M96.4,19.9c0,0.5-0.4,1-1,1c-0.5,0-1-0.4-1-1c0-0.5,0.4-1,1-1
	C96,18.9,96.4,19.4,96.4,19.9z M99.2,1.6c-0.2,0-0.3,0.1-0.3,0.3c0,0.2,0.2,0.3,0.3,0.3c0.2,0,0.3-0.1,0.3-0.3
	C99.5,1.8,99.4,1.6,99.2,1.6z M99,3.9c0,0.2-0.2,0.4-0.4,0.4c-0.2,0-0.4-0.2-0.4-0.4c0-0.2,0.2-0.4,0.4-0.4C98.8,3.4,99,3.6,99,3.9z
	 M98.5,5.8c0,0.3-0.2,0.6-0.6,0.6c-0.3,0-0.5-0.2-0.5-0.6s0.3-0.6,0.5-0.6C98.2,5.2,98.5,5.5,98.5,5.8z M98,7.7
	c0,0.4-0.3,0.6-0.6,0.6c-0.4,0-0.7-0.3-0.7-0.6c0-0.4,0.3-0.6,0.7-0.6C97.7,7.1,98,7.4,98,7.7z M97.4,9.7c0,0.4-0.3,0.7-0.7,0.7
	c-0.4,0-0.7-0.3-0.7-0.7c0-0.4,0.3-0.7,0.7-0.7C97,9,97.4,9.3,97.4,9.7z M96.8,11.6c0,0.4-0.4,0.8-0.8,0.8c-0.4,0-0.8-0.4-0.8-0.8
	c0-0.4,0.4-0.8,0.8-0.8C96.5,10.8,96.8,11.2,96.8,11.6z M96.2,13.5c0,0.5-0.4,0.9-0.9,0.9c-0.5,0-0.9-0.4-0.9-0.9
	c0-0.5,0.4-0.9,0.9-0.9C95.9,12.7,96.2,13.1,96.2,13.5z M95.7,15.5c0,0.5-0.4,0.9-0.9,0.9c-0.5,0-0.9-0.4-0.9-0.9
	c0-0.5,0.4-0.9,0.9-0.9C95.3,14.6,95.7,15,95.7,15.5z M95.1,17.4c0,0.5-0.4,0.9-0.9,0.9c-0.5,0-0.9-0.4-0.9-0.9
	c0-0.5,0.4-0.9,0.9-0.9C94.7,16.5,95.1,16.9,95.1,17.4z M94.5,19.3c0,0.5-0.4,1-1,1c-0.5,0-1-0.4-1-1c0-0.5,0.4-1,1-1
	C94.1,18.4,94.5,18.8,94.5,19.3z M97.2,1c-0.2,0-0.3,0.1-0.3,0.3c0,0.2,0.1,0.3,0.3,0.3s0.3-0.1,0.3-0.3C97.6,1.1,97.4,1,97.2,1z
	 M97.1,3.2c0,0.2-0.2,0.4-0.4,0.4c-0.2,0-0.4-0.2-0.4-0.4c0-0.2,0.2-0.4,0.4-0.4C96.9,2.8,97.1,3,97.1,3.2z M96.5,5.2
	c0,0.3-0.2,0.6-0.5,0.6c-0.3,0-0.6-0.2-0.6-0.6s0.2-0.6,0.6-0.6C96.3,4.6,96.5,4.9,96.5,5.2z M96,7.1c0,0.4-0.3,0.6-0.6,0.6
	s-0.6-0.3-0.6-0.6c0-0.4,0.3-0.6,0.6-0.6S96,6.7,96,7.1z M95.4,9c0,0.4-0.3,0.7-0.7,0.7C94.3,9.8,94,9.4,94,9c0-0.4,0.3-0.7,0.7-0.7
	C95.1,8.3,95.4,8.6,95.4,9z M94.9,11c0,0.4-0.4,0.8-0.8,0.8c-0.4,0-0.8-0.4-0.8-0.8c0-0.4,0.4-0.8,0.8-0.8
	C94.6,10.2,94.9,10.5,94.9,11z M94.3,12.9c0,0.5-0.4,0.9-0.9,0.9c-0.5,0-0.9-0.4-0.9-0.9c0-0.5,0.4-0.9,0.9-0.9
	C93.9,12,94.3,12.4,94.3,12.9z M93.7,14.8c0,0.5-0.4,0.9-0.9,0.9c-0.5,0-0.9-0.4-0.9-0.9c0-0.5,0.4-0.9,0.9-0.9
	C93.3,13.9,93.7,14.3,93.7,14.8z M93.1,16.8c0,0.5-0.4,0.9-0.9,0.9c-0.5,0-0.9-0.4-0.9-0.9c0-0.5,0.4-0.9,0.9-0.9
	C92.7,15.8,93.1,16.2,93.1,16.8z M92.6,18.7c0,0.5-0.4,1-1,1c-0.5,0-1-0.4-1-1c0-0.5,0.4-1,1-1C92.1,17.7,92.6,18.2,92.6,18.7z
	 M94.7,2.3c-0.2,0-0.3,0.1-0.3,0.3c0,0.2,0.1,0.3,0.3,0.3c0.2,0,0.3-0.1,0.3-0.3C95,2.4,94.9,2.3,94.7,2.3z M94.5,4.5
	c0,0.2-0.2,0.4-0.4,0.4c-0.2,0-0.4-0.2-0.4-0.4c0-0.2,0.2-0.4,0.4-0.4C94.3,4.1,94.5,4.3,94.5,4.5z M94,6.4C94,6.7,93.7,7,93.4,7
	c-0.3,0-0.6-0.2-0.6-0.5c0-0.3,0.2-0.6,0.6-0.6C93.7,5.9,94,6.1,94,6.4z M93.5,8.4c0,0.4-0.3,0.6-0.6,0.6c-0.4,0-0.6-0.3-0.6-0.6
	c0-0.4,0.3-0.6,0.6-0.6C93.2,7.7,93.5,8,93.5,8.4z M92.9,10.3c0,0.4-0.3,0.7-0.7,0.7c-0.4,0-0.7-0.3-0.7-0.7c0-0.4,0.3-0.7,0.7-0.7
	C92.6,9.6,92.9,9.9,92.9,10.3z M92.3,12.3c0,0.4-0.4,0.8-0.8,0.8c-0.4,0-0.8-0.4-0.8-0.8c0-0.4,0.4-0.8,0.8-0.8
	C92,11.5,92.3,11.8,92.3,12.3z M91.7,14.2c0,0.5-0.4,0.9-0.9,0.9c-0.5,0-0.9-0.4-0.9-0.9c0-0.5,0.4-0.9,0.9-0.9
	C91.4,13.3,91.7,13.7,91.7,14.2z M91.2,16.1c0,0.5-0.4,0.9-0.9,0.9c-0.5,0-0.9-0.4-0.9-0.9c0-0.5,0.4-0.9,0.9-0.9
	C90.8,15.2,91.2,15.6,91.2,16.1z M90.6,18c0,0.5-0.4,0.9-0.9,0.9c-0.5,0-0.9-0.4-0.9-0.9c0-0.5,0.4-0.9,0.9-0.9
	C90.2,17.1,90.6,17.5,90.6,18z M90,20c0,0.5-0.4,1-1,1c-0.5,0-1-0.4-1-1c0-0.5,0.4-1,1-1C89.6,19,90,19.4,90,20z M92.8,1.6
	c-0.2,0-0.3,0.1-0.3,0.3c0,0.2,0.1,0.3,0.3,0.3c0.2,0,0.3-0.1,0.3-0.3C93.1,1.8,92.9,1.6,92.8,1.6z M92.6,3.8c0,0.2-0.2,0.4-0.4,0.4
	c-0.2,0-0.4-0.2-0.4-0.4c0-0.2,0.2-0.4,0.4-0.4C92.4,3.4,92.6,3.6,92.6,3.8z M92.1,5.8c0,0.3-0.2,0.6-0.6,0.6
	c-0.3,0-0.5-0.2-0.5-0.6c0-0.3,0.2-0.6,0.5-0.6C91.8,5.2,92.1,5.5,92.1,5.8z M91.6,7.7c0,0.4-0.3,0.6-0.6,0.6
	c-0.4,0-0.6-0.3-0.6-0.6c0-0.4,0.3-0.6,0.6-0.6C91.3,7.1,91.6,7.4,91.6,7.7z M91,9.7c0,0.4-0.3,0.7-0.7,0.7c-0.4,0-0.7-0.3-0.7-0.7
	c0-0.4,0.3-0.7,0.7-0.7C90.6,8.9,91,9.3,91,9.7z M90.4,11.6c0,0.4-0.4,0.8-0.8,0.8c-0.4,0-0.8-0.4-0.8-0.8c0-0.4,0.4-0.8,0.8-0.8
	C90.1,10.8,90.4,11.2,90.4,11.6z M89.8,13.5c0,0.5-0.4,0.9-0.9,0.9c-0.5,0-0.9-0.4-0.9-0.9c0-0.5,0.4-0.9,0.9-0.9
	C89.5,12.7,89.8,13,89.8,13.5z M89.3,15.4c0,0.5-0.4,0.9-0.9,0.9c-0.5,0-0.9-0.4-0.9-0.9c0-0.5,0.4-0.9,0.9-0.9
	C88.9,14.5,89.3,14.9,89.3,15.4z M88.7,17.4c0,0.5-0.4,0.9-0.9,0.9c-0.5,0-0.9-0.4-0.9-0.9c0-0.5,0.4-0.9,0.9-0.9
	C88.3,16.4,88.7,16.9,88.7,17.4z M88.1,19.3c0,0.5-0.4,1-1,1c-0.5,0-1-0.4-1-1c0-0.5,0.4-1,1-1C87.7,18.4,88.1,18.8,88.1,19.3z
	 M90.8,1c-0.2,0-0.3,0.1-0.3,0.3c0,0.2,0.1,0.3,0.3,0.3c0.2,0,0.3-0.1,0.3-0.3C91.1,1.1,91,1,90.8,1z M90.6,3.2
	c0,0.2-0.2,0.4-0.4,0.4c-0.2,0-0.4-0.2-0.4-0.4c0-0.2,0.2-0.4,0.4-0.4C90.4,2.8,90.6,3,90.6,3.2z M90.1,5.2c0,0.3-0.2,0.6-0.6,0.6
	c-0.3,0-0.5-0.2-0.5-0.6c0-0.3,0.2-0.6,0.5-0.6C89.8,4.6,90.1,4.9,90.1,5.2z M89.6,7.1c0,0.4-0.3,0.6-0.6,0.6
	c-0.4,0-0.7-0.3-0.7-0.6c0-0.4,0.3-0.6,0.7-0.6C89.3,6.4,89.6,6.7,89.6,7.1z M89,9c0,0.4-0.3,0.7-0.7,0.7c-0.4,0-0.7-0.3-0.7-0.7
	c0-0.4,0.3-0.7,0.7-0.7C88.7,8.3,89,8.6,89,9z M88.5,11c0,0.4-0.4,0.8-0.8,0.8c-0.4,0-0.8-0.3-0.8-0.8c0-0.4,0.4-0.8,0.8-0.8
	C88.1,10.2,88.5,10.5,88.5,11z M87.9,12.9c0,0.5-0.4,0.9-0.9,0.9c-0.5,0-0.9-0.4-0.9-0.9c0-0.5,0.4-0.9,0.9-0.9
	C87.5,12,87.9,12.4,87.9,12.9z M87.3,14.8c0,0.5-0.4,0.9-0.9,0.9c-0.5,0-0.9-0.4-0.9-0.9c0-0.5,0.4-0.9,0.9-0.9
	C86.9,13.9,87.3,14.3,87.3,14.8z M86.7,16.8c0,0.5-0.4,0.9-0.9,0.9c-0.5,0-0.9-0.4-0.9-0.9c0-0.5,0.4-0.9,0.9-0.9
	C86.3,15.8,86.7,16.2,86.7,16.8z M86.1,18.7c0,0.5-0.4,1-1,1c-0.5,0-1-0.4-1-1c0-0.5,0.4-1,1-1C85.7,17.7,86.1,18.2,86.1,18.7z
	 M88.2,2.3c-0.2,0-0.3,0.1-0.3,0.3c0,0.2,0.1,0.3,0.3,0.3c0.2,0,0.3-0.1,0.3-0.3C88.6,2.4,88.4,2.3,88.2,2.3z M88.1,4.5
	c0,0.2-0.2,0.4-0.4,0.4c-0.2,0-0.4-0.2-0.4-0.4c0-0.2,0.2-0.4,0.4-0.4C87.9,4.1,88.1,4.3,88.1,4.5z M87.5,6.4C87.5,6.7,87.3,7,87,7
	c-0.3,0-0.6-0.2-0.6-0.5c0-0.3,0.2-0.6,0.6-0.6C87.3,5.9,87.5,6.1,87.5,6.4z M87,8.4C87,8.7,86.7,9,86.4,9c-0.4,0-0.6-0.3-0.6-0.6
	c0-0.4,0.3-0.6,0.6-0.6C86.7,7.7,87,8,87,8.4z M86.4,10.3c0,0.4-0.3,0.7-0.7,0.7c-0.4,0-0.7-0.3-0.7-0.7c0-0.4,0.3-0.7,0.7-0.7
	C86.1,9.6,86.4,9.9,86.4,10.3z M85.9,12.3c0,0.4-0.4,0.8-0.8,0.8c-0.4,0-0.8-0.4-0.8-0.8c0-0.4,0.4-0.8,0.8-0.8
	C85.6,11.5,85.9,11.8,85.9,12.3z M85.3,14.2c0,0.5-0.4,0.9-0.9,0.9c-0.5,0-0.9-0.4-0.9-0.9c0-0.5,0.4-0.9,0.9-0.9
	C84.9,13.3,85.3,13.7,85.3,14.2z M84.7,16.1c0,0.5-0.4,0.9-0.9,0.9c-0.5,0-0.9-0.4-0.9-0.9c0-0.5,0.4-0.9,0.9-0.9
	C84.3,15.2,84.7,15.6,84.7,16.1z M84.2,18c0,0.5-0.4,0.9-0.9,0.9c-0.5,0-0.9-0.4-0.9-0.9c0-0.5,0.4-0.9,0.9-0.9
	C83.7,17.1,84.2,17.5,84.2,18z M83.6,20c0,0.5-0.4,1-1,1c-0.5,0-1-0.4-1-1c0-0.5,0.4-1,1-1C83.1,19,83.6,19.4,83.6,20z M86.3,1.7
	C86.1,1.7,86,1.9,86,2c0,0.2,0.1,0.3,0.3,0.3c0.2,0,0.3-0.1,0.3-0.3C86.6,1.9,86.5,1.7,86.3,1.7z M86.1,3.9c0,0.2-0.2,0.4-0.4,0.4
	c-0.2,0-0.4-0.2-0.4-0.4c0-0.2,0.2-0.4,0.4-0.4C85.9,3.5,86.1,3.7,86.1,3.9z M85.6,5.9c0,0.3-0.2,0.6-0.6,0.6
	c-0.3,0-0.5-0.2-0.5-0.6c0-0.3,0.2-0.6,0.5-0.6C85.4,5.3,85.6,5.6,85.6,5.9z M85.1,7.8c0,0.4-0.3,0.6-0.6,0.6
	c-0.4,0-0.6-0.3-0.6-0.6c0-0.4,0.3-0.6,0.6-0.6C84.8,7.2,85.1,7.5,85.1,7.8z M84.5,9.8c0,0.4-0.3,0.7-0.7,0.7
	c-0.4,0-0.7-0.3-0.7-0.7c0-0.4,0.3-0.7,0.7-0.7C84.2,9.1,84.5,9.4,84.5,9.8z M84,11.7c0,0.4-0.4,0.8-0.8,0.8c-0.4,0-0.8-0.4-0.8-0.8
	c0-0.4,0.4-0.8,0.8-0.8C83.6,10.9,84,11.3,84,11.7z M83.4,13.6c0,0.5-0.4,0.9-0.9,0.9c-0.5,0-0.9-0.4-0.9-0.9c0-0.5,0.4-0.9,0.9-0.9
	C83,12.8,83.4,13.1,83.4,13.6z M82.8,15.5c0,0.5-0.4,0.9-0.9,0.9c-0.5,0-0.9-0.4-0.9-0.9c0-0.5,0.4-0.9,0.9-0.9
	C82.4,14.7,82.8,15.1,82.8,15.5z M82.2,17.5c0,0.5-0.4,0.9-0.9,0.9c-0.5,0-0.9-0.4-0.9-0.9c0-0.5,0.4-0.9,0.9-0.9
	C81.8,16.6,82.2,17,82.2,17.5z M81.6,19.4c0,0.5-0.4,1-1,1c-0.5,0-1-0.4-1-1c0-0.5,0.4-1,1-1C81.2,18.5,81.6,18.9,81.6,19.4z
	 M84.4,1.1c-0.2,0-0.3,0.1-0.3,0.3c0,0.2,0.1,0.3,0.3,0.3c0.2,0,0.3-0.1,0.3-0.3C84.7,1.2,84.6,1.1,84.4,1.1z M84.2,3.3
	c0,0.2-0.2,0.4-0.4,0.4c-0.2,0-0.4-0.2-0.4-0.4c0-0.2,0.2-0.4,0.4-0.4C84,2.9,84.2,3.1,84.2,3.3z M83.7,5.2c0,0.3-0.2,0.5-0.6,0.5
	c-0.3,0-0.6-0.2-0.6-0.5c0-0.3,0.2-0.6,0.6-0.6C83.4,4.7,83.7,4.9,83.7,5.2z M83.2,7.2c0,0.4-0.3,0.6-0.7,0.6
	c-0.4,0-0.6-0.3-0.6-0.6c0-0.4,0.3-0.6,0.6-0.6C82.9,6.5,83.2,6.8,83.2,7.2z M82.6,9.1c0,0.4-0.3,0.7-0.7,0.7
	c-0.4,0-0.7-0.3-0.7-0.7c0-0.4,0.3-0.7,0.7-0.7C82.3,8.4,82.6,8.7,82.6,9.1z M82.1,11.1c0,0.4-0.4,0.8-0.8,0.8
	c-0.4,0-0.8-0.4-0.8-0.8c0-0.4,0.4-0.8,0.8-0.8C81.7,10.3,82.1,10.6,82.1,11.1z M81.5,13c0,0.5-0.4,0.9-0.9,0.9
	c-0.5,0-0.9-0.4-0.9-0.9c0-0.5,0.4-0.9,0.9-0.9C81.1,12.1,81.5,12.5,81.5,13z M80.9,14.9c0,0.5-0.4,0.9-0.9,0.9
	c-0.5,0-0.9-0.4-0.9-0.9c0-0.5,0.4-0.9,0.9-0.9C80.5,14,80.9,14.4,80.9,14.9z M80.3,16.9c0,0.5-0.4,0.9-0.9,0.9
	c-0.5,0-0.9-0.4-0.9-0.9c0-0.5,0.4-0.9,0.9-0.9C79.9,15.9,80.3,16.3,80.3,16.9z M79.7,18.8c0,0.5-0.4,1-1,1c-0.5,0-1-0.4-1-1
	c0-0.5,0.4-1,1-1C79.3,17.8,79.7,18.3,79.7,18.8z M81.8,2.4c-0.2,0-0.3,0.1-0.3,0.3c0,0.2,0.1,0.3,0.3,0.3c0.2,0,0.3-0.1,0.3-0.3
	C82.1,2.5,82,2.4,81.8,2.4z M81.6,4.6c0,0.2-0.2,0.4-0.4,0.4c-0.2,0-0.4-0.2-0.4-0.4c0-0.2,0.2-0.4,0.4-0.4
	C81.4,4.2,81.6,4.3,81.6,4.6z M81.1,6.5c0,0.3-0.2,0.6-0.5,0.6c-0.3,0-0.6-0.2-0.6-0.6C80,6.2,80.3,6,80.6,6
	C80.9,6,81.1,6.2,81.1,6.5z M80.6,8.5c0,0.4-0.3,0.6-0.6,0.6c-0.4,0-0.6-0.3-0.6-0.6c0-0.4,0.3-0.6,0.6-0.6
	C80.3,7.8,80.6,8.1,80.6,8.5z M80,10.4c0,0.4-0.3,0.7-0.7,0.7c-0.4,0-0.7-0.3-0.7-0.7c0-0.4,0.3-0.7,0.7-0.7C79.7,9.7,80,10,80,10.4
	z M79.5,12.4c0,0.4-0.4,0.8-0.8,0.8c-0.4,0-0.8-0.4-0.8-0.8c0-0.4,0.4-0.8,0.8-0.8C79.1,11.6,79.5,11.9,79.5,12.4z M78.9,14.3
	c0,0.5-0.4,0.9-0.9,0.9c-0.5,0-0.9-0.4-0.9-0.9c0-0.5,0.4-0.9,0.9-0.9C78.5,13.4,78.9,13.8,78.9,14.3z M78.3,16.2
	c0,0.5-0.4,0.9-0.9,0.9c-0.5,0-0.9-0.4-0.9-0.9c0-0.5,0.4-0.9,0.9-0.9C77.9,15.3,78.3,15.7,78.3,16.2z M77.7,18.1
	c0,0.5-0.4,0.9-0.9,0.9c-0.5,0-0.9-0.4-0.9-0.9c0-0.5,0.4-0.9,0.9-0.9C77.3,17.2,77.7,17.6,77.7,18.1z M77.1,20.1c0,0.5-0.4,1-1,1
	c-0.5,0-1-0.4-1-1c0-0.5,0.4-1,1-1C76.7,19.1,77.1,19.5,77.1,20.1z M79.8,1.7c-0.2,0-0.3,0.1-0.3,0.3c0,0.2,0.1,0.3,0.3,0.3
	c0.2,0,0.3-0.1,0.3-0.3C80.1,1.9,80,1.7,79.8,1.7z M79.6,3.9c0,0.2-0.2,0.4-0.4,0.4c-0.2,0-0.4-0.2-0.4-0.4c0-0.2,0.2-0.4,0.4-0.4
	C79.4,3.5,79.6,3.7,79.6,3.9z M79.1,5.9c0,0.3-0.2,0.6-0.5,0.6c-0.3,0-0.6-0.2-0.6-0.6c0-0.3,0.2-0.6,0.6-0.6
	C78.8,5.3,79.1,5.6,79.1,5.9z M78.6,7.8c0,0.4-0.3,0.6-0.6,0.6c-0.4,0-0.6-0.3-0.6-0.6c0-0.4,0.3-0.6,0.6-0.6
	C78.3,7.2,78.6,7.5,78.6,7.8z M78,9.8c0,0.4-0.3,0.7-0.7,0.7c-0.4,0-0.7-0.3-0.7-0.7c0-0.4,0.3-0.7,0.7-0.7C77.7,9.1,78,9.4,78,9.8z
	 M77.5,11.7c0,0.4-0.4,0.8-0.8,0.8c-0.4,0-0.8-0.4-0.8-0.8c0-0.4,0.4-0.8,0.8-0.8C77.1,10.9,77.5,11.3,77.5,11.7z M76.9,13.6
	c0,0.5-0.4,0.9-0.9,0.9c-0.5,0-0.9-0.4-0.9-0.9c0-0.5,0.4-0.9,0.9-0.9C76.5,12.8,76.9,13.1,76.9,13.6z M76.3,15.5
	c0,0.5-0.4,0.9-0.9,0.9c-0.5,0-0.9-0.4-0.9-0.9c0-0.5,0.4-0.9,0.9-0.9C75.9,14.7,76.3,15.1,76.3,15.5z M75.7,17.5
	c0,0.5-0.4,0.9-0.9,0.9c-0.5,0-0.9-0.4-0.9-0.9c0-0.5,0.4-0.9,0.9-0.9C75.3,16.6,75.7,17,75.7,17.5z M75.1,19.4c0,0.5-0.4,1-1,1
	c-0.5,0-1-0.4-1-1c0-0.5,0.4-1,1-1C74.7,18.5,75.1,18.9,75.1,19.4z M78,1.2c-0.2,0-0.3,0.1-0.3,0.3c0,0.2,0.1,0.3,0.3,0.3
	c0.2,0,0.3-0.1,0.3-0.3C78.3,1.3,78.1,1.2,78,1.2z M77.8,3.4c0,0.2-0.2,0.4-0.4,0.4c-0.2,0-0.4-0.2-0.4-0.4c0-0.2,0.2-0.4,0.4-0.4
	C77.6,3,77.8,3.2,77.8,3.4z M77.3,5.3c0,0.3-0.2,0.6-0.6,0.6s-0.6-0.2-0.6-0.6s0.2-0.6,0.6-0.6S77.3,5,77.3,5.3z M76.7,7.3
	c0,0.4-0.3,0.6-0.7,0.6c-0.4,0-0.6-0.3-0.6-0.6c0-0.4,0.3-0.6,0.6-0.6C76.5,6.6,76.7,6.9,76.7,7.3z M76.2,9.2c0,0.4-0.3,0.7-0.7,0.7
	c-0.4,0-0.7-0.3-0.7-0.7c0-0.4,0.3-0.7,0.7-0.7C75.8,8.5,76.2,8.8,76.2,9.2z M75.6,11.2c0,0.4-0.4,0.8-0.8,0.8
	c-0.4,0-0.8-0.4-0.8-0.8c0-0.4,0.4-0.8,0.8-0.8C75.3,10.4,75.6,10.7,75.6,11.2z M75,13.1c0,0.5-0.4,0.9-0.9,0.9
	c-0.5,0-0.9-0.4-0.9-0.9c0-0.5,0.4-0.8,0.9-0.8C74.7,12.2,75,12.6,75,13.1z M74.5,15c0,0.5-0.4,0.9-0.9,0.9c-0.5,0-0.9-0.4-0.9-0.9
	c0-0.5,0.4-0.9,0.9-0.9C74.1,14.1,74.5,14.5,74.5,15z M73.9,16.9c0,0.5-0.4,0.9-0.9,0.9c-0.5,0-0.9-0.4-0.9-0.9
	c0-0.5,0.4-0.9,0.9-0.9C73.4,16,73.9,16.4,73.9,16.9z M73.3,18.9c0,0.5-0.4,1-1,1c-0.5,0-1-0.4-1-1c0-0.5,0.4-1,1-1
	C72.9,17.9,73.3,18.3,73.3,18.9z M75.3,2.5c-0.2,0-0.3,0.1-0.3,0.3c0,0.2,0.1,0.3,0.3,0.3s0.3-0.1,0.3-0.3
	C75.7,2.6,75.5,2.5,75.3,2.5z M75.2,4.7c0,0.2-0.2,0.4-0.4,0.4c-0.2,0-0.4-0.2-0.4-0.4c0-0.2,0.2-0.4,0.4-0.4
	C75,4.3,75.2,4.4,75.2,4.7z M74.6,6.6c0,0.3-0.2,0.6-0.6,0.6c-0.3,0-0.5-0.2-0.5-0.6s0.2-0.5,0.5-0.5C74.4,6.1,74.6,6.3,74.6,6.6z
	 M74.1,8.6c0,0.4-0.3,0.6-0.6,0.6c-0.4,0-0.6-0.3-0.6-0.6c0-0.4,0.3-0.6,0.6-0.6C73.8,7.9,74.1,8.2,74.1,8.6z M73.5,10.5
	c0,0.4-0.3,0.7-0.7,0.7c-0.4,0-0.7-0.3-0.7-0.7c0-0.4,0.3-0.7,0.7-0.7C73.2,9.8,73.5,10.1,73.5,10.5z M73,12.4
	c0,0.4-0.4,0.8-0.8,0.8c-0.4,0-0.8-0.4-0.8-0.8c0-0.4,0.4-0.8,0.8-0.8C72.7,11.7,73,12,73,12.4z M72.4,14.3c0,0.5-0.4,0.9-0.9,0.9
	c-0.5,0-0.8-0.4-0.8-0.9c0-0.5,0.4-0.9,0.8-0.9C72,13.5,72.4,13.9,72.4,14.3z M71.8,16.3c0,0.5-0.4,0.9-0.9,0.9
	c-0.5,0-0.9-0.4-0.9-0.9c0-0.5,0.4-0.9,0.9-0.9C71.4,15.4,71.8,15.8,71.8,16.3z M71.2,18.2c0,0.5-0.4,0.9-0.9,0.9
	c-0.5,0-0.9-0.4-0.9-0.9c0-0.5,0.4-0.9,0.9-0.9C70.8,17.3,71.2,17.7,71.2,18.2z M70.7,20.2c0,0.5-0.4,1-1,1c-0.5,0-1-0.4-1-1
	c0-0.5,0.4-1,1-1C70.2,19.2,70.7,19.6,70.7,20.2z M73.5,1.8c-0.2,0-0.3,0.1-0.3,0.3c0,0.2,0.1,0.3,0.3,0.3c0.2,0,0.3-0.1,0.3-0.3
	C73.8,1.9,73.6,1.8,73.5,1.8z M73.3,4c0,0.2-0.2,0.4-0.4,0.4c-0.2,0-0.4-0.2-0.4-0.4c0-0.2,0.2-0.4,0.4-0.4
	C73.1,3.6,73.3,3.8,73.3,4z M72.8,6c0,0.3-0.2,0.6-0.6,0.6c-0.3,0-0.6-0.2-0.6-0.6c0-0.3,0.2-0.6,0.6-0.6C72.5,5.4,72.8,5.7,72.8,6z
	 M72.2,7.9c0,0.4-0.3,0.6-0.6,0.6c-0.4,0-0.6-0.3-0.6-0.6c0-0.4,0.3-0.6,0.6-0.6C72,7.3,72.2,7.5,72.2,7.9z M71.7,9.9
	c0,0.4-0.3,0.7-0.7,0.7c-0.4,0-0.7-0.3-0.7-0.7c0-0.4,0.3-0.7,0.7-0.7C71.3,9.1,71.7,9.5,71.7,9.9z M71.1,11.8
	c0,0.4-0.4,0.8-0.8,0.8c-0.4,0-0.8-0.4-0.8-0.8c0-0.4,0.4-0.8,0.8-0.8C70.8,11,71.1,11.4,71.1,11.8z M70.5,13.7
	c0,0.5-0.4,0.9-0.9,0.9c-0.5,0-0.9-0.4-0.9-0.9c0-0.5,0.4-0.9,0.9-0.9C70.2,12.8,70.5,13.2,70.5,13.7z M70,15.6
	c0,0.5-0.4,0.9-0.9,0.9s-0.9-0.4-0.9-0.9c0-0.5,0.4-0.9,0.9-0.9S70,15.1,70,15.6z M69.4,17.6c0,0.5-0.4,0.9-0.9,0.9
	c-0.5,0-0.9-0.4-0.9-0.9c0-0.5,0.4-0.9,0.9-0.9C68.9,16.6,69.4,17.1,69.4,17.6z M71.5,1.1c-0.2,0-0.3,0.1-0.3,0.3
	c0,0.2,0.2,0.3,0.3,0.3c0.2,0,0.3-0.1,0.3-0.3C71.8,1.3,71.7,1.1,71.5,1.1z M71.3,3.4c0,0.2-0.2,0.4-0.4,0.4c-0.2,0-0.4-0.2-0.4-0.4
	c0-0.2,0.2-0.4,0.4-0.4C71.1,2.9,71.3,3.1,71.3,3.4z M70.8,5.3c0,0.3-0.2,0.6-0.6,0.6c-0.3,0-0.5-0.2-0.5-0.6c0-0.3,0.2-0.5,0.5-0.5
	C70.6,4.8,70.8,5,70.8,5.3z M70.3,7.2c0,0.4-0.3,0.6-0.6,0.6c-0.4,0-0.7-0.3-0.7-0.6c0-0.4,0.3-0.6,0.7-0.6
	C70,6.6,70.3,6.9,70.3,7.2z M69.7,9.2c0,0.4-0.3,0.7-0.7,0.7c-0.4,0-0.7-0.3-0.7-0.7c0-0.4,0.3-0.7,0.7-0.7
	C69.4,8.5,69.7,8.8,69.7,9.2z M69.2,11.1c0,0.4-0.4,0.8-0.8,0.8c-0.4,0-0.8-0.4-0.8-0.8c0-0.4,0.4-0.8,0.8-0.8
	C68.8,10.3,69.2,10.7,69.2,11.1z M68.6,13c0,0.5-0.4,0.9-0.9,0.9c-0.5,0-0.9-0.4-0.9-0.9c0-0.5,0.4-0.9,0.9-0.9
	C68.2,12.2,68.6,12.6,68.6,13z M68,15c0,0.5-0.4,0.9-0.9,0.9c-0.5,0-0.9-0.4-0.9-0.9c0-0.5,0.4-0.9,0.9-0.9C67.6,14.1,68,14.5,68,15
	z M67.4,16.9c0,0.5-0.4,0.9-0.9,0.9c-0.5,0-0.9-0.4-0.9-0.9c0-0.5,0.4-0.9,0.9-0.9C67,16,67.4,16.4,67.4,16.9z M68.9,2.5
	c-0.2,0-0.3,0.1-0.3,0.3c0,0.2,0.1,0.3,0.3,0.3c0.2,0,0.3-0.1,0.3-0.3C69.2,2.6,69.1,2.5,68.9,2.5z M68.7,4.7c0,0.2-0.2,0.4-0.4,0.4
	c-0.2,0-0.4-0.2-0.4-0.4c0-0.2,0.2-0.4,0.4-0.4C68.5,4.2,68.7,4.4,68.7,4.7z M68.2,6.6c0,0.3-0.2,0.6-0.6,0.6
	c-0.3,0-0.5-0.3-0.5-0.6c0-0.3,0.2-0.6,0.5-0.6C68,6.1,68.2,6.3,68.2,6.6z M67.7,8.6c0,0.4-0.3,0.6-0.6,0.6c-0.4,0-0.6-0.3-0.6-0.6
	c0-0.4,0.3-0.6,0.6-0.6C67.4,7.9,67.7,8.2,67.7,8.6z M67.1,10.5c0,0.4-0.3,0.7-0.7,0.7c-0.4,0-0.7-0.3-0.7-0.7
	c0-0.4,0.3-0.7,0.7-0.7C66.8,9.8,67.1,10.1,67.1,10.5z M66.6,12.4c0,0.4-0.4,0.8-0.8,0.8c-0.4,0-0.8-0.4-0.8-0.8
	c0-0.4,0.4-0.8,0.8-0.8C66.2,11.6,66.6,12,66.6,12.4z M66,14.3c0,0.5-0.4,0.9-0.9,0.9c-0.5,0-0.9-0.4-0.9-0.9c0-0.5,0.4-0.9,0.9-0.9
	C65.6,13.5,66,13.9,66,14.3z M67,1.8c-0.2,0-0.3,0.1-0.3,0.3c0,0.2,0.1,0.3,0.3,0.3c0.2,0,0.3-0.1,0.3-0.3C67.3,2,67.2,1.8,67,1.8z
	 M66.8,4c0,0.2-0.2,0.4-0.4,0.4C66.2,4.5,66,4.3,66,4c0-0.2,0.2-0.4,0.4-0.4C66.6,3.6,66.8,3.8,66.8,4z M66.3,6
	c0,0.3-0.2,0.6-0.5,0.6c-0.3,0-0.6-0.2-0.6-0.6c0-0.3,0.2-0.5,0.6-0.5C66.1,5.4,66.3,5.7,66.3,6z M65.8,7.9c0,0.4-0.3,0.6-0.6,0.6
	c-0.4,0-0.6-0.3-0.6-0.6c0-0.4,0.3-0.6,0.6-0.6C65.5,7.3,65.8,7.6,65.8,7.9z M65.2,9.9c0,0.4-0.3,0.7-0.7,0.7
	c-0.4,0-0.7-0.3-0.7-0.7c0-0.4,0.3-0.7,0.7-0.7C64.9,9.1,65.2,9.5,65.2,9.9z M64.7,11.8c0,0.4-0.4,0.8-0.8,0.8
	c-0.4,0-0.8-0.4-0.8-0.8c0-0.4,0.4-0.8,0.8-0.8C64.3,11,64.7,11.4,64.7,11.8z M64.1,13.7c0,0.5-0.4,0.9-0.9,0.9
	c-0.5,0-0.9-0.4-0.9-0.9c0-0.5,0.4-0.9,0.9-0.9C63.7,12.9,64.1,13.2,64.1,13.7z M65.1,1.2c-0.2,0-0.3,0.1-0.3,0.3s0.1,0.3,0.3,0.3
	c0.2,0,0.3-0.2,0.3-0.3S65.3,1.2,65.1,1.2z M64.9,3.4c0,0.2-0.2,0.4-0.4,0.4c-0.2,0-0.4-0.2-0.4-0.4c0-0.2,0.2-0.4,0.4-0.4
	C64.7,3,64.9,3.2,64.9,3.4z M64.4,5.3c0,0.3-0.2,0.6-0.6,0.6c-0.3,0-0.6-0.2-0.6-0.6c0-0.3,0.2-0.6,0.6-0.6
	C64.2,4.8,64.4,5,64.4,5.3z M63.9,7.3c0,0.4-0.3,0.6-0.7,0.6c-0.4,0-0.6-0.3-0.6-0.6s0.3-0.6,0.6-0.6C63.6,6.6,63.9,6.9,63.9,7.3z
	 M63.3,9.2c0,0.4-0.3,0.7-0.7,0.7c-0.4,0-0.7-0.3-0.7-0.7c0-0.4,0.3-0.7,0.7-0.7C63,8.5,63.3,8.8,63.3,9.2z M62.8,11.2
	c0,0.4-0.4,0.8-0.8,0.8c-0.4,0-0.8-0.4-0.8-0.8c0-0.4,0.4-0.8,0.8-0.8C62.4,10.4,62.8,10.7,62.8,11.2z M62.5,2.5
	c-0.2,0-0.3,0.1-0.3,0.3c0,0.2,0.1,0.3,0.3,0.3c0.2,0,0.3-0.1,0.3-0.3C62.9,2.6,62.7,2.5,62.5,2.5z M62.3,4.7c0,0.2-0.2,0.4-0.4,0.4
	c-0.2,0-0.4-0.2-0.4-0.4c0-0.2,0.2-0.4,0.4-0.4C62.2,4.2,62.3,4.4,62.3,4.7z M61.8,6.6c0,0.3-0.2,0.6-0.6,0.6
	c-0.3,0-0.6-0.3-0.6-0.6c0-0.3,0.2-0.6,0.6-0.6C61.6,6.1,61.8,6.3,61.8,6.6z M61.3,8.6c0,0.4-0.3,0.6-0.6,0.6
	c-0.4,0-0.6-0.3-0.6-0.6c0-0.4,0.3-0.6,0.6-0.6C61,7.9,61.3,8.2,61.3,8.6z M60.7,10.5c0,0.4-0.3,0.7-0.7,0.7c-0.4,0-0.7-0.3-0.7-0.7
	c0-0.4,0.3-0.7,0.7-0.7C60.4,9.8,60.7,10.1,60.7,10.5z M60.6,1.9c-0.2,0-0.3,0.1-0.3,0.3c0,0.2,0.1,0.3,0.3,0.3
	c0.2,0,0.3-0.1,0.3-0.3C60.9,2.1,60.7,1.9,60.6,1.9z M60.4,4.1c0,0.2-0.2,0.4-0.4,0.4c-0.2,0-0.4-0.2-0.4-0.4c0-0.2,0.2-0.4,0.4-0.4
	C60.2,3.7,60.4,3.9,60.4,4.1z M59.9,6.1c0,0.3-0.2,0.6-0.6,0.6c-0.3,0-0.6-0.2-0.6-0.6c0-0.3,0.2-0.6,0.6-0.6
	C59.6,5.5,59.9,5.8,59.9,6.1z M59.4,8c0,0.4-0.3,0.6-0.6,0.6c-0.4,0-0.6-0.3-0.6-0.6c0-0.4,0.3-0.6,0.6-0.6
	C59.1,7.4,59.4,7.7,59.4,8z M58.6,1.2c-0.2,0-0.3,0.1-0.3,0.3c0,0.2,0.1,0.3,0.3,0.3c0.2,0,0.3-0.1,0.3-0.3
	C58.9,1.4,58.8,1.2,58.6,1.2z M58.4,3.5c0,0.2-0.2,0.4-0.4,0.4c-0.2,0-0.4-0.2-0.4-0.4C57.6,3.2,57.8,3,58,3
	C58.2,3,58.4,3.2,58.4,3.5z M57.9,5.4c0,0.3-0.2,0.6-0.6,0.6c-0.3,0-0.6-0.2-0.6-0.6c0-0.3,0.2-0.5,0.6-0.5
	C57.7,4.9,57.9,5.1,57.9,5.4z M57.4,7.3c0,0.4-0.3,0.6-0.6,0.6c-0.4,0-0.6-0.3-0.6-0.6s0.3-0.6,0.6-0.6C57.1,6.7,57.4,7,57.4,7.3z
	 M56.1,2.5c-0.2,0-0.3,0.1-0.3,0.3c0,0.2,0.1,0.3,0.3,0.3c0.2,0,0.3-0.1,0.3-0.3C56.4,2.7,56.3,2.5,56.1,2.5z M55.9,4.8
	c0,0.2-0.2,0.4-0.4,0.4C55.2,5.2,55,5,55,4.8c0-0.2,0.2-0.4,0.4-0.4C55.7,4.3,55.9,4.5,55.9,4.8z M54.2,1.9c-0.2,0-0.3,0.1-0.3,0.3
	c0,0.2,0.1,0.3,0.3,0.3c0.2,0,0.3-0.1,0.3-0.3C54.5,2.1,54.4,1.9,54.2,1.9z M54,4.1c0,0.2-0.2,0.4-0.4,0.4c-0.2,0-0.4-0.2-0.4-0.4
	c0-0.2,0.2-0.4,0.4-0.4C53.8,3.7,54,3.9,54,4.1z M52.2,1.3c-0.2,0-0.3,0.1-0.3,0.3c0,0.2,0.1,0.3,0.3,0.3c0.2,0,0.3-0.1,0.3-0.3
	C52.6,1.4,52.4,1.3,52.2,1.3z M52.1,3.5c0,0.2-0.2,0.4-0.4,0.4c-0.2,0-0.4-0.2-0.4-0.4c0-0.2,0.2-0.4,0.4-0.4
	C51.9,3.1,52.1,3.3,52.1,3.5z M49.5,1.1c-0.2,0-0.3,0.1-0.3,0.3c0,0.2,0.1,0.3,0.3,0.3c0.2,0,0.3-0.1,0.3-0.3
	C49.8,1.3,49.7,1.1,49.5,1.1z M54.8,7.3C54.8,7.3,54.8,7.3,54.8,7.3c0.3,0,0.6-0.2,0.6-0.6c0-0.3-0.2-0.5-0.6-0.5
	c-0.3,0-0.5,0.2-0.5,0.5c0,0,0,0,0,0L54.8,7.3z M56.8,9.3c0-0.4-0.3-0.7-0.7-0.7L56.8,9.3z M58.2,10.7c0.3-0.1,0.6-0.4,0.6-0.7
	c0-0.4-0.3-0.7-0.7-0.7c-0.3,0-0.6,0.2-0.7,0.6L58.2,10.7z M60.2,12.6c0-0.1,0-0.1,0-0.2c0-0.4-0.4-0.8-0.8-0.8c-0.1,0-0.1,0-0.2,0
	L60.2,12.6z M61.5,13.9c0.4-0.1,0.7-0.4,0.7-0.8c0-0.5-0.4-0.9-0.9-0.9c-0.4,0-0.8,0.3-0.8,0.7L61.5,13.9z M63.5,16
	c0-0.1,0.1-0.2,0.1-0.3c0-0.5-0.4-0.9-0.9-0.9c-0.1,0-0.2,0-0.3,0.1L63.5,16z M64.5,15.4c-0.4,0-0.8,0.3-0.9,0.7l1.1,1.1
	c0.4-0.1,0.7-0.4,0.7-0.9C65.4,15.8,65,15.4,64.5,15.4z M66.8,19.2c0-0.1,0.1-0.2,0.1-0.4c0-0.5-0.4-1-1-1c-0.1,0-0.3,0-0.4,0.1
	L66.8,19.2z M67.8,18.5c-0.5,0-0.9,0.3-1,0.8l1.2,1.2c0.4-0.1,0.8-0.5,0.8-1C68.8,19,68.4,18.5,67.8,18.5z M70,22.4
	c0-0.1,0-0.2,0-0.3c0-0.6-0.4-1-1-1c-0.1,0-0.2,0-0.3,0.1L70,22.4z M102.1,15.4c0-0.5-0.4-0.9-0.9-0.9c-0.5,0-0.9,0.4-0.9,0.9
	c0,0.5,0.4,0.9,0.9,0.9C101.7,16.2,102.1,15.8,102.1,15.4z M101.8,14.3c-0.5,0-0.9-0.4-0.9-0.9c0-0.5,0.4-0.9,0.9-0.9
	c0.5,0,0.8,0.4,0.8,0.9C102.6,13.9,102.3,14.3,101.8,14.3z M99.9,18.3c0.5,0,1,0.4,1,1c0,0.5-0.4,1-1,1c-0.5,0-1-0.4-1-1
	C98.9,18.7,99.4,18.3,99.9,18.3z M103.8,5.7c0-0.3,0.2-0.5,0.6-0.5c0.3,0,0.5,0.2,0.5,0.5c0,0.3-0.2,0.6-0.5,0.6
	C104,6.2,103.8,6,103.8,5.7z M103.7,7c0.4,0,0.6,0.3,0.6,0.6c0,0.4-0.3,0.6-0.6,0.6c-0.4,0-0.7-0.3-0.7-0.6
	C103.1,7.3,103.3,7,103.7,7z M103,10.3c-0.4,0-0.7-0.3-0.7-0.7c0-0.4,0.3-0.7,0.7-0.7c0.4,0,0.7,0.3,0.7,0.7
	C103.8,10,103.4,10.3,103,10.3z M100.5,18.2c-0.5,0-0.9-0.4-0.9-0.9c0-0.5,0.4-0.9,0.9-0.9c0.5,0,0.9,0.4,0.9,0.9
	C101.5,17.8,101.1,18.2,100.5,18.2z M102.4,12.3c-0.4,0-0.8-0.4-0.8-0.8c0-0.4,0.4-0.8,0.8-0.8c0.4,0,0.8,0.4,0.8,0.8
	C103.2,11.9,102.9,12.3,102.4,12.3z M104.5,3.7c0-0.2,0.2-0.4,0.4-0.4c0.2,0,0.4,0.2,0.4,0.4c0,0.2-0.2,0.4-0.4,0.4
	C104.7,4.2,104.5,4,104.5,3.7z M105.2,1.8c0-0.2,0.1-0.3,0.3-0.3c0.2,0,0.3,0.1,0.3,0.3c0,0.2-0.1,0.3-0.3,0.3
	C105.4,2.2,105.2,2,105.2,1.8z M97.7,16.7c0-0.5,0.4-0.9,0.9-0.9c0.5,0,0.9,0.4,0.9,0.9c0,0.5-0.4,0.9-0.9,0.9
	C98.1,17.5,97.7,17.1,97.7,16.7z M98.4,14.7c0-0.5,0.4-0.9,0.9-0.9c0.5,0,0.9,0.4,0.9,0.9c0,0.5-0.4,0.9-0.9,0.9
	C98.8,15.6,98.4,15.2,98.4,14.7z M97.1,18.6c0-0.5,0.4-0.9,0.9-0.9c0.5,0,0.9,0.4,0.9,0.9c0,0.5-0.4,0.9-0.9,0.9
	C97.5,19.5,97.1,19.1,97.1,18.6z M99.1,12.8c0-0.4,0.4-0.8,0.8-0.8c0.4,0,0.8,0.4,0.8,0.8c0,0.4-0.4,0.8-0.8,0.8
	C99.5,13.6,99.1,13.3,99.1,12.8z M96.4,20.5c0-0.5,0.4-1,1-1c0.5,0,1,0.4,1,1c0,0.5-0.4,1-1,1C96.8,21.5,96.4,21.1,96.4,20.5z
	 M102,5.1c0-0.2,0.2-0.4,0.4-0.4c0.2,0,0.4,0.2,0.4,0.4c0,0.2-0.2,0.4-0.4,0.4C102.2,5.5,102,5.3,102,5.1z M99.8,10.9
	c0-0.4,0.3-0.7,0.7-0.7c0.4,0,0.7,0.3,0.7,0.7c0,0.4-0.3,0.7-0.7,0.7C100.1,11.6,99.8,11.3,99.8,10.9z M102.7,3.1
	c0-0.2,0.1-0.3,0.3-0.3c0.2,0,0.3,0.1,0.3,0.3c0,0.2-0.1,0.3-0.3,0.3C102.9,3.5,102.7,3.3,102.7,3.1z M101.2,7
	c0-0.3,0.2-0.5,0.5-0.5c0.3,0,0.6,0.2,0.6,0.5c0,0.3-0.2,0.6-0.6,0.6C101.5,7.5,101.2,7.3,101.2,7z M100.5,8.9
	c0-0.4,0.3-0.6,0.6-0.6s0.6,0.3,0.6,0.6c0,0.4-0.3,0.6-0.6,0.6S100.5,9.3,100.5,8.9z M115.1,21.6c0-0.6-0.5-1-1-1
	c-0.4,0-0.7,0.2-0.9,0.5c0,0,0,0,0-0.1c0-0.6-0.5-1-1-1c-0.4,0-0.7,0.2-0.9,0.5c0,0,0-0.1,0-0.1c0-0.6-0.5-1-1-1c-0.6,0-1,0.5-1,1
	c0,0.3,0.2,0.7,0.4,0.8c0,0,0,0,0,0c-0.4,0-0.7,0.2-0.9,0.6c0,0,0-0.1,0-0.1c0-0.6-0.5-1-1-1c-0.6,0-1,0.5-1,1
	c0,0.4,0.2,0.7,0.4,0.8c0,0,0,0,0,0c-0.4,0-0.7,0.2-0.9,0.5c0,0,0,0,0-0.1c0-0.4-0.2-0.7-0.5-0.9h0c0.6,0,1-0.5,1-1c0-0.6-0.5-1-1-1
	c-0.6,0-1,0.5-1,1c0,0.3,0.2,0.7,0.4,0.8c0,0,0,0,0,0c-0.4,0-0.7,0.2-0.9,0.5c0,0,0,0,0,0c0-0.6-0.5-1-1-1c-0.4,0-0.8,0.3-0.9,0.6
	c0-0.1,0-0.2,0-0.2c0-0.6-0.5-1-1-1c-0.4,0-0.8,0.3-0.9,0.6c0-0.1,0-0.1,0-0.2c0-0.6-0.5-1-1-1c-0.6,0-1,0.5-1,1
	c0,0.3,0.2,0.7,0.4,0.8c0,0,0,0,0,0c-0.4,0-0.7,0.2-0.9,0.5c0,0,0,0,0,0c0-0.6-0.5-1-1-1c-0.4,0-0.8,0.2-0.9,0.6c0-0.1,0-0.1,0-0.2
	c0-0.6-0.5-1-1-1c-0.4,0-0.7,0.2-0.9,0.6c0,0,0,0,0-0.1c0-0.6-0.5-1-1-1c-0.4,0-0.8,0.2-0.9,0.6c0-0.1,0-0.1,0-0.2c0-0.6-0.5-1-1-1
	c-0.6,0-1,0.5-1,1c0,0.3,0.2,0.7,0.4,0.8c0,0,0,0,0,0c-0.4,0-0.8,0.2-0.9,0.6c0,0,0-0.1,0-0.1c0-0.6-0.5-1-1-1
	c-0.4,0-0.7,0.2-0.9,0.5c0-0.1,0-0.1,0-0.2c0-0.6-0.5-1-1-1c-0.6,0-1,0.5-1,1c0,0.3,0.2,0.7,0.4,0.8c0,0,0,0,0,0
	c-0.4,0-0.7,0.2-0.9,0.5c0,0,0,0,0-0.1c0-0.4-0.2-0.7-0.5-0.9c0,0,0,0,0,0c0.6,0,1-0.5,1-1c0-0.6-0.5-1-1-1c-0.6,0-1,0.5-1,1
	c0,0.3,0.2,0.7,0.4,0.8c0,0,0,0,0,0c-0.4,0-0.7,0.2-0.9,0.5c0,0,0-0.1,0-0.1c0-0.6-0.5-1-1-1c-0.4,0-0.7,0.2-0.9,0.6c0,0,0,0,0-0.1
	c0-0.6-0.5-1-1-1c-0.4,0-0.8,0.2-0.9,0.6c0-0.1,0-0.1,0-0.2c0-0.6-0.5-1-1-1c-0.6,0-1,0.5-1,1c0,0.3,0.2,0.6,0.4,0.8c0,0,0,0,0,0
	c-0.4,0-0.8,0.2-0.9,0.6c0,0,0-0.1,0-0.1c0-0.6-0.5-1-1-1c-0.6,0-1,0.5-1,1c0,0.3,0.2,0.6,0.4,0.8c0,0,0,0,0,0c-0.4,0-0.8,0.3-1,0.6
	c0-0.1,0-0.1,0-0.2c0-0.4-0.2-0.7-0.5-0.9c0,0,0,0,0,0c0.6,0,1-0.5,1-1c0-0.6-0.5-1-1-1c-0.3,0-0.6,0.2-0.8,0.4c0-0.5-0.5-1-1-1
	c-0.6,0-1,0.5-1,1c0,0.3,0.2,0.6,0.4,0.8c0,0,0,0,0,0c-0.5,0-0.9,0.3-1,0.8l1.3,1.3c0.2-0.1,0.4-0.2,0.5-0.3c0,0.3,0.2,0.5,0.4,0.7
	c-0.2,0-0.3,0-0.5,0.1c0,0,3,3.1,3.2,3.2l17.7,17.6c0.7-0.1,18.7-18.7,18.7-18.7c-0.1-0.1-0.2-0.3-0.3-0.4c0.3,0,0.5-0.2,0.6-0.4
	c0,0.1,0,0.2,0.1,0.3l2.7-2.7c-0.1-0.2-0.2-0.5-0.4-0.6c0,0,0,0,0,0C114.6,22.6,115.1,22.2,115.1,21.6z M72.9,22.2
	c-0.3,0-0.6,0.1-0.8,0.3c0-0.3-0.2-0.6-0.5-0.7c0,0,0,0,0,0c0.3,0,0.6-0.2,0.8-0.4C72.5,21.8,72.7,22,72.9,22.2
	C72.9,22.2,72.9,22.2,72.9,22.2z M73.4,25.2C73.4,25.2,73.4,25.2,73.4,25.2c0-0.4-0.2-0.7-0.4-0.9c0.4,0,0.8-0.3,0.9-0.6
	c0,0.1,0,0.1,0,0.2c0,0.3,0.2,0.6,0.4,0.8C73.9,24.7,73.5,24.9,73.4,25.2z M107.6,22.8c0.4,0,0.7-0.2,0.9-0.5c0,0,0,0.1,0,0.1
	c0,0.3,0.2,0.6,0.4,0.8c-0.3,0-0.6,0.2-0.8,0.4C108.1,23.3,107.9,23,107.6,22.8C107.6,22.8,107.6,22.8,107.6,22.8z M106,23.6
	C106,23.6,106,23.7,106,23.6c0,0.4,0.1,0.7,0.4,0.9c-0.3,0-0.6,0.2-0.8,0.4c0-0.3-0.2-0.6-0.4-0.8C105.5,24.1,105.8,23.9,106,23.6z
	 M105.3,25.7c0,0.3,0.1,0.5,0.3,0.7c-0.2,0-0.4,0.1-0.6,0.3c0-0.3-0.2-0.5-0.4-0.7C104.9,26,105.1,25.9,105.3,25.7z M103.2,23.4
	c0.4,0,0.7-0.2,0.9-0.5c0,0,0,0,0,0c0,0.3,0.2,0.6,0.4,0.8c-0.3,0-0.6,0.1-0.8,0.4C103.6,23.9,103.4,23.6,103.2,23.4
	C103.2,23.4,103.2,23.4,103.2,23.4z M103.3,25c0,0.3,0.1,0.5,0.3,0.7c-0.3,0-0.5,0.2-0.7,0.4c0-0.3-0.2-0.5-0.4-0.7
	C102.9,25.4,103.1,25.3,103.3,25z M102.7,34C102.7,34,102.6,34,102.7,34c-0.1,0-0.1-0.1-0.2-0.1c0,0,0.1,0,0.1-0.1
	C102.6,33.9,102.7,33.9,102.7,34z M102.7,27c0,0.2,0.1,0.4,0.3,0.6c-0.2,0-0.4,0.1-0.5,0.2c-0.1-0.2-0.2-0.4-0.3-0.6
	C102.3,27.3,102.5,27.2,102.7,27z M102,29.1c0,0.2,0.1,0.3,0.2,0.4c-0.1,0-0.3,0.1-0.4,0.2c-0.1-0.2-0.1-0.3-0.3-0.4
	C101.7,29.3,101.9,29.2,102,29.1z M101.2,22.8c0.4,0,0.8-0.3,0.9-0.6c0,0.1,0,0.2,0,0.2c0,0.3,0.2,0.7,0.4,0.8c0,0,0,0,0,0
	c-0.4,0-0.7,0.2-0.9,0.5c0,0,0,0,0,0C101.7,23.3,101.5,23,101.2,22.8C101.2,22.8,101.2,22.8,101.2,22.8z M101.5,24.3
	C101.5,24.3,101.5,24.3,101.5,24.3c0,0.4,0.2,0.7,0.4,0.9c-0.3,0-0.6,0.2-0.8,0.4c0-0.3-0.2-0.6-0.4-0.8
	C101,24.7,101.3,24.6,101.5,24.3z M100.5,27.3c0-0.3-0.2-0.5-0.4-0.6c0.3,0,0.5-0.2,0.6-0.4c0,0.3,0.1,0.5,0.3,0.7
	C100.9,27.1,100.7,27.2,100.5,27.3z M100.4,29c-0.2,0-0.4,0.1-0.5,0.2c-0.1-0.2-0.2-0.4-0.3-0.5c0.2,0,0.4-0.1,0.5-0.3
	C100.2,28.6,100.3,28.8,100.4,29z M100.1,35.4L100.1,35.4c0-0.1-0.1-0.1-0.1-0.2c0,0,0,0,0,0C100,35.2,100,35.3,100.1,35.4z
	 M97.5,36.7c-0.1,0-0.1,0-0.2,0.1c0,0,0-0.1,0-0.1c0.1,0,0.1,0,0.2-0.1C97.5,36.6,97.5,36.6,97.5,36.7z M91.1,36.7
	c-0.1,0-0.1,0-0.2,0.1c0,0,0-0.1,0-0.1C91,36.7,91,36.7,91.1,36.7C91.1,36.7,91.1,36.7,91.1,36.7z M89.2,36.1c-0.1,0-0.1,0-0.2,0.1
	c0,0,0,0,0,0C89,36.1,89.1,36.1,89.2,36.1C89.2,36.1,89.2,36.1,89.2,36.1z M87.3,35.5c-0.1,0-0.1,0-0.2,0.1c0,0,0-0.1,0-0.1
	C87.1,35.5,87.2,35.5,87.3,35.5C87.2,35.5,87.2,35.5,87.3,35.5z M85.3,34.9C85.3,34.9,85.3,34.9,85.3,34.9c0-0.1-0.1-0.1-0.1-0.2
	c0,0,0,0,0,0C85.3,34.7,85.3,34.8,85.3,34.9z M84.4,30.1c0.1,0,0.2-0.1,0.3-0.2c0,0.1,0.1,0.3,0.2,0.4c-0.1,0-0.2,0.1-0.3,0.1
	C84.5,30.4,84.5,30.3,84.4,30.1z M85.6,28.5c-0.2,0-0.4,0.1-0.5,0.2c-0.1-0.2-0.2-0.4-0.3-0.5c0.2,0,0.4-0.1,0.5-0.3
	C85.4,28.1,85.5,28.3,85.6,28.5z M85.7,32.8c0.1,0,0.1-0.1,0.2-0.1c0,0.1,0,0.1,0.1,0.2c-0.1,0-0.1,0.1-0.2,0.1
	C85.8,32.9,85.8,32.8,85.7,32.8z M86.3,30.8c0.1,0,0.2-0.1,0.3-0.2c0,0.1,0.1,0.2,0.1,0.3c-0.1,0-0.2,0.1-0.3,0.2
	C86.4,31,86.4,30.9,86.3,30.8z M88.3,31.5c0.1,0,0.2-0.1,0.3-0.1c0,0.1,0.1,0.2,0.1,0.3c-0.1,0-0.2,0.1-0.3,0.1
	C88.4,31.6,88.3,31.5,88.3,31.5z M89.9,27.3c0,0.2,0.1,0.4,0.3,0.6c-0.2,0-0.4,0.1-0.5,0.2c0-0.2-0.1-0.4-0.3-0.5
	C89.5,27.5,89.7,27.4,89.9,27.3z M92.5,25.8c0,0.2,0.2,0.5,0.3,0.6c-0.2,0-0.5,0.1-0.6,0.3c-0.1-0.2-0.2-0.4-0.3-0.6
	C92.1,26.2,92.3,26,92.5,25.8z M94.4,26.4c0,0.3,0.1,0.5,0.3,0.7c-0.2,0-0.4,0.1-0.6,0.3c0-0.2-0.2-0.5-0.3-0.6
	C94,26.7,94.2,26.6,94.4,26.4z M96.6,32c0.1,0,0.2-0.1,0.3-0.2c0,0.1,0.1,0.2,0.1,0.2c-0.1,0-0.2,0.1-0.3,0.1
	C96.7,32.2,96.7,32.1,96.6,32z M97.5,29.8c0,0.1,0.1,0.3,0.2,0.4c-0.1,0-0.2,0.1-0.3,0.2c0-0.1-0.1-0.2-0.2-0.3
	C97.3,30,97.4,29.9,97.5,29.8z M96.3,34c0,0-0.1,0-0.1,0.1c0,0,0-0.1-0.1-0.1c0,0,0.1,0,0.1-0.1C96.2,33.9,96.2,33.9,96.3,34z
	 M96.3,27.1c0,0.2,0.1,0.5,0.3,0.6c-0.2,0-0.4,0.1-0.5,0.3c-0.1-0.2-0.2-0.4-0.3-0.6C95.9,27.4,96.1,27.3,96.3,27.1z M95.6,29.2
	c0,0.2,0.1,0.3,0.2,0.4c-0.1,0-0.3,0.1-0.4,0.2c-0.1-0.2-0.1-0.3-0.3-0.4C95.3,29.4,95.4,29.3,95.6,29.2z M94.9,31.2
	c0,0.1,0.1,0.2,0.1,0.3c-0.1,0-0.2,0.1-0.3,0.1c0-0.1-0.1-0.2-0.2-0.3C94.8,31.3,94.9,31.3,94.9,31.2z M94.3,33.4
	c-0.1,0-0.1,0.1-0.2,0.1c0-0.1-0.1-0.1-0.1-0.2c0.1,0,0.1-0.1,0.2-0.1C94.3,33.3,94.3,33.3,94.3,33.4z M93.6,35.2L93.6,35.2
	L93.6,35.2L93.6,35.2z M93.7,28.5c0,0.2,0.1,0.4,0.3,0.6c-0.2,0-0.4,0.1-0.5,0.2c0-0.2-0.1-0.4-0.3-0.5
	C93.4,28.7,93.6,28.6,93.7,28.5z M93.1,30.5c0,0.1,0.1,0.3,0.2,0.4c-0.1,0-0.2,0.1-0.3,0.2c0-0.1-0.1-0.2-0.2-0.4
	C92.8,30.7,93,30.6,93.1,30.5z M92.5,32.8c-0.1,0-0.2,0.1-0.3,0.1c0-0.1-0.1-0.2-0.1-0.2c0.1,0,0.2-0.1,0.3-0.1
	C92.4,32.6,92.5,32.7,92.5,32.8z M91.8,27.9c0,0.2,0.1,0.3,0.3,0.5c-0.2,0-0.4,0.1-0.5,0.3c-0.1-0.2-0.1-0.3-0.3-0.4
	C91.5,28.2,91.7,28,91.8,27.9z M91.1,29.9c0,0.1,0.1,0.2,0.2,0.3c-0.1,0-0.2,0.1-0.3,0.2c0-0.1-0.1-0.2-0.2-0.3
	C90.9,30.1,91,30,91.1,29.9z M90.5,31.9c0,0.1,0.1,0.1,0.1,0.2c-0.1,0-0.2,0.1-0.3,0.1c0-0.1-0.1-0.1-0.1-0.2
	C90.3,32.1,90.4,32,90.5,31.9z M89.9,34c0,0-0.1,0-0.1,0.1c0,0,0,0,0-0.1C89.7,34,89.8,34,89.9,34C89.8,34,89.8,34,89.9,34z
	 M89.2,29.3c0,0.1,0.1,0.3,0.2,0.4c-0.1,0-0.2,0.1-0.3,0.2c0-0.1-0.1-0.2-0.2-0.4C89,29.5,89.1,29.4,89.2,29.3z M87.9,33.5
	C87.9,33.5,87.9,33.5,87.9,33.5c-0.1,0-0.1,0-0.2-0.1c0,0,0.1,0,0.1-0.1C87.9,33.4,87.9,33.4,87.9,33.5z M87.9,26.5
	c0,0.3,0.1,0.5,0.3,0.7c-0.2,0-0.4,0.1-0.6,0.3c-0.1-0.2-0.2-0.4-0.3-0.6C87.6,26.8,87.8,26.7,87.9,26.5z M87.2,28.6
	c0,0.2,0.1,0.3,0.2,0.5c-0.2,0.1-0.3,0.1-0.4,0.2c-0.1-0.2-0.1-0.3-0.3-0.5C86.9,28.8,87.1,28.7,87.2,28.6z M91.6,34.6
	C91.7,34.6,91.7,34.6,91.6,34.6c0.1,0,0.1,0,0.2,0.1c0,0-0.1,0-0.1,0C91.7,34.7,91.7,34.6,91.6,34.6z M95.4,36
	c0.1,0,0.1-0.1,0.2-0.1c0,0,0,0.1,0,0.1C95.5,36.1,95.5,36.1,95.4,36C95.4,36.1,95.4,36.1,95.4,36z M98,34.5
	C98.1,34.5,98.1,34.5,98,34.5c0.1,0,0.1,0,0.2,0.1c0,0-0.1,0-0.1,0C98.1,34.6,98.1,34.6,98,34.5z M98.6,32.6c0.1,0,0.2-0.1,0.3-0.2
	c0,0.1,0.1,0.2,0.1,0.3c-0.1,0-0.2,0.1-0.3,0.1C98.6,32.8,98.6,32.7,98.6,32.6z M99.5,30.5c0,0.1,0.1,0.3,0.2,0.4
	c-0.1,0-0.2,0.1-0.3,0.2c0-0.1-0.1-0.2-0.2-0.4C99.3,30.6,99.4,30.5,99.5,30.5z M99.3,22.2c0.4,0,0.8-0.3,0.9-0.6c0,0.1,0,0.1,0,0.2
	c0,0.3,0.2,0.7,0.4,0.8c0,0,0,0,0,0c-0.4,0-0.7,0.2-0.9,0.5l0,0C99.7,22.7,99.6,22.4,99.3,22.2C99.3,22.2,99.3,22.2,99.3,22.2z
	 M99.5,23.7L99.5,23.7c0,0.3,0.2,0.6,0.4,0.8c-0.3,0-0.6,0.2-0.8,0.4c0-0.3-0.2-0.6-0.4-0.8C99.1,24.1,99.4,23.9,99.5,23.7z
	 M98.9,25.7c0,0.3,0.1,0.5,0.3,0.7c-0.2,0-0.5,0.1-0.6,0.3c0-0.2-0.2-0.5-0.3-0.6C98.5,26.1,98.7,25.9,98.9,25.7z M98.2,27.8
	c0,0.2,0.1,0.4,0.3,0.5c-0.2,0-0.4,0.1-0.5,0.3c-0.1-0.2-0.1-0.4-0.3-0.5C97.9,28,98.1,27.9,98.2,27.8z M96.7,23.5
	c0.4,0,0.7-0.2,0.9-0.5c0,0,0,0,0,0c0,0.3,0.2,0.6,0.4,0.8c-0.3,0-0.6,0.1-0.8,0.4C97.2,23.9,97,23.7,96.7,23.5
	C96.7,23.5,96.7,23.5,96.7,23.5z M96.9,25.1c0,0.3,0.1,0.5,0.3,0.7c-0.3,0-0.5,0.2-0.7,0.3c0-0.3-0.2-0.5-0.4-0.7
	C96.5,25.4,96.7,25.3,96.9,25.1z M94.8,22.9c0.4,0,0.8-0.2,0.9-0.6c0,0.1,0,0.1,0,0.2c0,0.3,0.2,0.7,0.4,0.8c0,0,0,0,0,0
	c-0.4,0-0.7,0.2-0.9,0.4c0,0,0,0,0,0C95.3,23.4,95.1,23,94.8,22.9L94.8,22.9z M95.1,24.4L95.1,24.4c0,0.3,0.2,0.6,0.4,0.8
	c-0.3,0-0.6,0.1-0.8,0.4c0-0.3-0.2-0.6-0.4-0.8C94.6,24.8,94.9,24.6,95.1,24.4z M92.9,22.3c0.4,0,0.7-0.2,0.9-0.6c0,0,0,0,0,0.1
	c0,0.4,0.2,0.7,0.4,0.8c0,0,0,0,0,0c-0.4,0-0.7,0.2-0.9,0.4C93.3,22.8,93.1,22.5,92.9,22.3C92.9,22.3,92.9,22.3,92.9,22.3z
	 M93.1,23.8c0,0.3,0.2,0.6,0.4,0.8c-0.3,0-0.6,0.2-0.8,0.4c0-0.3-0.2-0.5-0.4-0.7C92.7,24.2,92.9,24.1,93.1,23.8z M91,21.7
	c0.4,0,0.8-0.2,0.9-0.6c0,0.1,0,0.1,0,0.2c0,0.4,0.2,0.7,0.4,0.8c0,0,0,0,0,0c-0.4,0-0.7,0.2-0.9,0.4c0,0,0,0,0,0
	C91.4,22.2,91.2,21.9,91,21.7C91,21.7,91,21.7,91,21.7z M91.2,23.2C91.2,23.2,91.2,23.2,91.2,23.2c0,0.4,0.2,0.6,0.4,0.8
	c-0.3,0-0.6,0.1-0.8,0.4c0-0.3-0.2-0.6-0.4-0.8C90.7,23.6,91,23.4,91.2,23.2z M90.5,25.2c0,0.3,0.1,0.5,0.3,0.7
	c-0.2,0-0.4,0.1-0.6,0.3c0-0.2-0.2-0.5-0.3-0.6C90.1,25.5,90.4,25.4,90.5,25.2z M88.4,22.9c0.4,0,0.7-0.2,0.9-0.5c0,0,0,0.1,0,0.1
	c0,0.3,0.2,0.6,0.4,0.8c-0.3,0-0.6,0.2-0.8,0.4C88.8,23.4,88.6,23.1,88.4,22.9C88.4,22.9,88.4,22.9,88.4,22.9z M88.6,24.5
	c0,0.3,0.1,0.6,0.3,0.7c-0.3,0-0.5,0.2-0.7,0.4c0-0.3-0.2-0.6-0.4-0.7C88.1,24.9,88.4,24.7,88.6,24.5z M86.5,22.3
	c0.4,0,0.7-0.2,0.9-0.5c0,0,0,0.1,0,0.2c0,0.3,0.2,0.7,0.4,0.8c0,0,0,0,0,0c-0.3,0-0.6,0.2-0.8,0.4C86.9,22.8,86.8,22.5,86.5,22.3
	C86.5,22.3,86.5,22.3,86.5,22.3z M86.7,23.8c0,0.3,0.2,0.6,0.4,0.8c-0.3,0-0.6,0.1-0.8,0.3c0-0.3-0.2-0.6-0.4-0.8
	C86.2,24.2,86.5,24.1,86.7,23.8z M86,25.9c0,0.3,0.1,0.5,0.3,0.7c-0.2,0-0.4,0.1-0.6,0.3c0-0.2-0.2-0.5-0.3-0.6
	C85.6,26.2,85.9,26,86,25.9z M84.8,23.1C84.8,23.1,84.8,23.1,84.8,23.1c0,0.4,0.1,0.7,0.4,0.9c-0.3,0-0.6,0.2-0.8,0.4
	c0-0.3-0.2-0.6-0.4-0.8C84.3,23.6,84.6,23.4,84.8,23.1z M84.1,25.2c0,0.3,0.1,0.5,0.3,0.7c-0.2,0-0.5,0.2-0.6,0.3
	c0-0.3-0.2-0.5-0.4-0.7C83.7,25.5,83.9,25.4,84.1,25.2z M83.4,34.1C83.4,34.1,83.4,34.2,83.4,34.1c-0.1,0-0.1-0.1-0.1-0.1
	c0,0,0,0,0.1,0C83.4,34,83.4,34.1,83.4,34.1z M82.6,29.9c0-0.1-0.1-0.3-0.2-0.4c0.1-0.1,0.3-0.1,0.4-0.2c0,0.1,0.1,0.3,0.2,0.4
	C82.8,29.7,82.7,29.8,82.6,29.9z M83.5,27.2c0,0.2,0.1,0.4,0.3,0.6c-0.2,0-0.4,0.1-0.6,0.3c0-0.2-0.1-0.4-0.3-0.5
	C83.1,27.5,83.3,27.4,83.5,27.2z M82,22.9c0.4,0,0.7-0.2,0.9-0.5c0,0,0,0.1,0,0.1c0,0.3,0.2,0.6,0.4,0.8c-0.3,0-0.6,0.2-0.8,0.4
	C82.4,23.4,82.2,23.1,82,22.9C82,22.9,82,22.9,82,22.9z M82.1,24.5c0,0.3,0.1,0.5,0.3,0.7c-0.3,0-0.5,0.2-0.7,0.4
	c0-0.3-0.2-0.6-0.4-0.7C81.7,24.9,81.9,24.7,82.1,24.5z M81.2,27.4c-0.1-0.2-0.2-0.4-0.3-0.6c0.2,0,0.4-0.2,0.6-0.3
	c0,0.2,0.1,0.5,0.3,0.7C81.6,27.2,81.4,27.3,81.2,27.4z M80,22.4c0.4,0,0.7-0.2,0.9-0.6c0,0,0,0.1,0,0.1c0,0.3,0.2,0.7,0.4,0.8
	c0,0,0,0,0,0c-0.4,0-0.7,0.2-0.9,0.4C80.5,22.9,80.3,22.6,80,22.4C80,22.4,80,22.4,80,22.4z M80.3,23.9c0,0.3,0.2,0.6,0.4,0.8
	c-0.3,0-0.6,0.2-0.8,0.4c0-0.3-0.2-0.5-0.4-0.7C79.8,24.3,80.1,24.2,80.3,23.9z M78.1,21.8c0.4,0,0.8-0.2,0.9-0.6c0,0.1,0,0.1,0,0.2
	c0,0.3,0.2,0.7,0.4,0.8c0,0,0,0,0,0c-0.4,0-0.7,0.2-0.9,0.4c0,0,0,0,0,0C78.6,22.3,78.4,21.9,78.1,21.8
	C78.1,21.7,78.1,21.8,78.1,21.8z M78.4,23.3C78.4,23.3,78.4,23.3,78.4,23.3c0,0.4,0.2,0.6,0.4,0.8c-0.3,0-0.6,0.1-0.8,0.4
	c0-0.3-0.2-0.6-0.4-0.8C77.9,23.7,78.2,23.5,78.4,23.3z M77.7,25.3c0,0.3,0.1,0.5,0.3,0.7c-0.2,0-0.4,0.1-0.6,0.3
	c0-0.2-0.2-0.5-0.3-0.6C77.3,25.6,77.5,25.5,77.7,25.3z M75.5,23c0.4,0,0.7-0.2,0.9-0.5c0,0,0,0.1,0,0.1c0,0.3,0.2,0.6,0.4,0.8
	c-0.3,0-0.6,0.2-0.8,0.4C76,23.5,75.8,23.2,75.5,23C75.5,23,75.5,23,75.5,23z M75.4,25.7c0-0.3-0.2-0.6-0.4-0.7
	c0.3,0,0.6-0.2,0.8-0.4c0,0.3,0.1,0.6,0.3,0.7C75.8,25.4,75.5,25.5,75.4,25.7z M76.8,28.2c-0.1-0.2-0.2-0.4-0.3-0.5
	c0.2,0,0.4-0.1,0.5-0.3c0,0.2,0.1,0.4,0.3,0.6C77.1,28,76.9,28,76.8,28.2z M78.1,30.5c0-0.1-0.1-0.2-0.2-0.3c0.1,0,0.2-0.1,0.4-0.2
	c0,0.1,0.1,0.2,0.2,0.3C78.3,30.4,78.2,30.5,78.1,30.5z M78.7,28.7c-0.1-0.2-0.1-0.3-0.3-0.4c0.2,0,0.4-0.2,0.6-0.3
	c0,0.2,0.1,0.3,0.3,0.5C79,28.5,78.8,28.6,78.7,28.7z M79.3,26.9c-0.1-0.2-0.2-0.4-0.3-0.6c0.3,0,0.5-0.2,0.6-0.4
	c0,0.2,0.2,0.4,0.3,0.6C79.7,26.6,79.5,26.7,79.3,26.9z M80,31.1c0-0.1-0.1-0.2-0.2-0.3c0.1,0,0.2-0.1,0.3-0.2
	c0,0.1,0.1,0.2,0.1,0.3C80.2,31,80.1,31,80,31.1z M80.6,29.3c-0.1-0.2-0.1-0.3-0.3-0.4c0.2,0,0.3-0.1,0.5-0.2c0,0.2,0.1,0.3,0.2,0.5
	C80.8,29.1,80.7,29.2,80.6,29.3z M81.3,33.4c0,0,0.1,0,0.1-0.1c0,0.1,0,0.1,0.1,0.2c0,0-0.1,0-0.1,0.1
	C81.4,33.5,81.4,33.4,81.3,33.4z M82,31.7c0-0.1-0.1-0.2-0.1-0.3c0.1,0,0.2-0.1,0.3-0.2c0,0.1,0.1,0.2,0.1,0.3
	C82.2,31.6,82.1,31.7,82,31.7z M83.9,32.3c0-0.1-0.1-0.2-0.1-0.2c0.1,0,0.2-0.1,0.3-0.1c0,0.1,0.1,0.2,0.1,0.3
	C84.1,32.3,84,32.3,83.9,32.3z M100.6,33.4c0-0.1-0.1-0.1-0.1-0.2c0.1,0,0.1-0.1,0.2-0.1c0,0,0,0.1,0.1,0.2
	C100.7,33.3,100.6,33.4,100.6,33.4z M101.2,31.6c0-0.1-0.1-0.2-0.1-0.3c0.1,0,0.2-0.1,0.3-0.2c0,0.1,0.1,0.2,0.1,0.3
	C101.4,31.5,101.3,31.5,101.2,31.6z M103.2,32.2c0-0.1-0.1-0.2-0.1-0.3c0.1,0,0.2-0.1,0.3-0.1c0,0.1,0.1,0.2,0.1,0.3
	C103.3,32.1,103.3,32.2,103.2,32.2z M103.8,30.4c0-0.1-0.1-0.3-0.2-0.4c0.1,0,0.2-0.1,0.3-0.2c0,0.1,0.1,0.3,0.2,0.4
	C104,30.2,103.9,30.3,103.8,30.4z M104.4,28.6c0-0.2-0.1-0.4-0.3-0.5c0.2,0,0.4-0.1,0.5-0.3c0,0.2,0.1,0.4,0.3,0.6
	C104.7,28.4,104.5,28.4,104.4,28.6z M105.7,30.9c0-0.1-0.1-0.2-0.1-0.3c0.1,0,0.2-0.1,0.3-0.2c0,0.1,0.1,0.2,0.1,0.3
	C105.9,30.8,105.8,30.9,105.7,30.9z M106.3,29.1c-0.1-0.2-0.1-0.3-0.3-0.4c0.2,0,0.3-0.1,0.5-0.2c0,0.2,0.1,0.3,0.2,0.4
	C106.5,28.9,106.4,29,106.3,29.1z M106.9,27.3c-0.1-0.2-0.2-0.4-0.3-0.6c0.2,0,0.5-0.2,0.6-0.3c0,0.2,0.1,0.5,0.3,0.6
	C107.3,27.1,107.1,27.2,106.9,27.3z M107.5,25.5c0-0.3-0.2-0.6-0.4-0.7c0.3,0,0.6-0.2,0.8-0.4c0,0.3,0.1,0.5,0.3,0.7
	C107.9,25.1,107.7,25.3,107.5,25.5z M108.9,27.9c-0.1-0.2-0.2-0.3-0.3-0.5c0.2,0,0.4-0.1,0.5-0.3c0,0.2,0.1,0.4,0.3,0.5
	C109.2,27.6,109,27.7,108.9,27.9z M109.5,26c-0.1-0.2-0.2-0.4-0.3-0.6c0.2,0,0.5-0.2,0.6-0.4c0,0.2,0.2,0.5,0.3,0.6
	C109.9,25.7,109.6,25.8,109.5,26z M110,24.2c0-0.3-0.2-0.5-0.4-0.7c0.3,0,0.6-0.2,0.8-0.4c0,0.3,0.2,0.6,0.4,0.8
	C110.5,23.8,110.2,23.9,110,24.2z M111.5,21.9c-0.4,0-0.7,0.2-0.9,0.4c0-0.3-0.2-0.6-0.5-0.8c0,0,0,0,0,0c0.4,0,0.7-0.2,0.9-0.5
	c0,0,0,0.1,0,0.1C111.1,21.4,111.3,21.7,111.5,21.9C111.5,21.9,111.5,21.9,111.5,21.9z M112,24.7c0-0.3-0.2-0.5-0.4-0.7
	c0.3,0,0.6-0.2,0.8-0.4c0,0.3,0.2,0.6,0.4,0.7C112.5,24.3,112.2,24.5,112,24.7z M113.4,22.4c-0.4,0-0.7,0.2-0.9,0.4
	c0-0.3-0.2-0.6-0.5-0.8l0,0c0.4,0,0.7-0.2,0.9-0.5c0,0,0,0,0,0.1C113,21.9,113.2,22.3,113.4,22.4C113.5,22.4,113.5,22.4,113.4,22.4z
	 M117.6,20.1l-2.6,2.6c0-0.1-0.1-0.3-0.1-0.4c0-0.6,0.5-1.1,1.1-1.1c0,0,0,0,0,0c-0.3-0.2-0.4-0.5-0.4-0.8c0-0.6,0.5-1,1-1
	C117.1,19.4,117.5,19.7,117.6,20.1z M118.3,19.5c-0.1-0.1-0.1-0.3-0.1-0.4c0-0.5,0.4-1,1-1c0.1,0,0.3,0,0.4,0.1L118.3,19.5z
	 M118.9,17.1c0-0.5,0.4-0.9,0.9-0.9c0.5,0,0.9,0.4,0.9,0.8l-1.1,1.1C119.2,18,118.9,17.6,118.9,17.1z M121.6,16.1
	c-0.1-0.1-0.1-0.3-0.1-0.4c0-0.5,0.4-0.9,0.9-0.9c0.1,0,0.3,0,0.4,0.1L121.6,16.1z M122.2,13.8c0-0.5,0.4-0.9,0.9-0.9
	c0.5,0,0.9,0.4,0.9,0.9c0,0,0,0.1,0,0.1l-0.8,0.8c0,0,0,0-0.1,0C122.6,14.7,122.2,14.3,122.2,13.8z M124.8,12.9
	c0-0.1-0.1-0.2-0.1-0.3c0-0.4,0.4-0.8,0.8-0.8c0.1,0,0.2,0,0.3,0.1L124.8,12.9z M128,9.7c-0.1-0.1-0.1-0.2-0.1-0.4
	c0-0.4,0.3-0.7,0.7-0.7c0.1,0,0.3,0,0.4,0.1L128,9.7z M131.4,6.4c-0.1-0.1-0.1-0.2-0.1-0.3c0-0.3,0.2-0.6,0.5-0.6
	c0.1,0,0.2,0,0.3,0.1L131.4,6.4z M134.7,2.7c0-0.2,0.1-0.3,0.3-0.3c0.1,0,0.2,0.1,0.3,0.2l-0.4,0.4C134.7,2.9,134.7,2.8,134.7,2.7z
	 M136.3,1.3c0,0.1-0.1,0.3-0.3,0.3c-0.1,0-0.3-0.1-0.3-0.3c0-0.1,0.1-0.3,0.3-0.3C136.2,1.1,136.3,1.2,136.3,1.3z M123.3,1.1
	c0,0.2-0.2,0.3-0.3,0.3c-0.2,0-0.3-0.1-0.3-0.3H123.3z M116.8,1.1C116.8,1.1,116.8,1.1,116.8,1.1c0,0.2-0.1,0.3-0.3,0.3
	c-0.2,0-0.3-0.1-0.3-0.3c0,0,0,0,0,0H116.8z"/>
<g>
	<path fill="#FFFFFF" d="M0.3,103.3h7.9c1.7,0,3,0.4,3.9,1.2c0.9,0.8,1.3,2,1.3,3.5c0,1.6-0.5,2.8-1.4,3.7c-0.9,0.9-2.4,1.3-4.3,1.3
		H5.1v5.7H0.3V103.3z M5.1,109.9h1.2c0.9,0,1.6-0.2,1.9-0.5c0.4-0.3,0.6-0.7,0.6-1.2c0-0.5-0.2-0.9-0.5-1.2
		c-0.3-0.3-0.9-0.5-1.8-0.5H5.1V109.9z"/>
	<path fill="#FFFFFF" d="M15.2,118.8v-15.5h8c1.5,0,2.6,0.1,3.4,0.4c0.8,0.3,1.4,0.7,1.9,1.4c0.5,0.7,0.7,1.5,0.7,2.5
		c0,0.9-0.2,1.6-0.5,2.2c-0.4,0.6-0.9,1.1-1.5,1.5c-0.4,0.2-1,0.4-1.7,0.6c0.6,0.2,1,0.4,1.2,0.6c0.2,0.1,0.4,0.4,0.8,0.8
		c0.3,0.4,0.6,0.7,0.7,1l2.3,4.5H25l-2.6-4.7c-0.3-0.6-0.6-1-0.9-1.2c-0.3-0.2-0.7-0.4-1.2-0.4H20v6.3H15.2z M20,109.6h2
		c0.2,0,0.6-0.1,1.3-0.2c0.3-0.1,0.6-0.2,0.8-0.5c0.2-0.3,0.3-0.6,0.3-0.9c0-0.5-0.2-0.9-0.5-1.1c-0.3-0.3-0.9-0.4-1.8-0.4H20V109.6
		z"/>
	<path fill="#FFFFFF" d="M30.4,111c0-2.5,0.7-4.5,2.1-5.9c1.4-1.4,3.4-2.1,5.9-2.1c2.6,0,4.6,0.7,6,2.1c1.4,1.4,2.1,3.3,2.1,5.8
		c0,1.8-0.3,3.3-0.9,4.4c-0.6,1.2-1.5,2.1-2.6,2.7c-1.2,0.6-2.6,1-4.3,1c-1.7,0-3.2-0.3-4.3-0.8c-1.1-0.6-2.1-1.4-2.8-2.6
		C30.8,114.4,30.4,112.9,30.4,111z M35.2,111.1c0,1.6,0.3,2.7,0.9,3.4c0.6,0.7,1.4,1,2.4,1c1,0,1.8-0.3,2.4-1
		c0.6-0.7,0.8-1.9,0.8-3.6c0-1.5-0.3-2.5-0.9-3.2c-0.6-0.7-1.4-1-2.4-1c-1,0-1.7,0.3-2.3,1C35.5,108.4,35.2,109.5,35.2,111.1z"/>
	<path fill="#FFFFFF" d="M48.6,103.3h11.8v3.3h-7v2.7h6v3.1h-6v6.3h-4.8V103.3z"/>
	<path fill="#FFFFFF" d="M62.6,103.3h12.8v3.3h-8v2.5h7.4v3.2h-7.4v3h8.3v3.5h-13V103.3z"/>
	<path fill="#FFFFFF" d="M77.4,113.6l4.6-0.3c0.1,0.7,0.3,1.3,0.6,1.7c0.5,0.6,1.2,0.9,2.1,0.9c0.7,0,1.2-0.2,1.6-0.5
		c0.4-0.3,0.6-0.7,0.6-1.1c0-0.4-0.2-0.8-0.5-1.1c-0.4-0.3-1.2-0.6-2.4-0.9c-2.1-0.5-3.6-1.1-4.5-1.9c-0.9-0.8-1.4-1.8-1.4-3
		c0-0.8,0.2-1.5,0.7-2.3c0.5-0.7,1.2-1.3,2.1-1.7c0.9-0.4,2.2-0.6,3.8-0.6c2,0,3.5,0.4,4.5,1.1c1,0.7,1.7,1.9,1.8,3.5l-4.5,0.3
		c-0.1-0.7-0.4-1.2-0.8-1.5c-0.4-0.3-0.9-0.5-1.6-0.5c-0.6,0-1,0.1-1.3,0.4c-0.3,0.2-0.4,0.5-0.4,0.9c0,0.2,0.1,0.5,0.3,0.7
		c0.2,0.2,0.8,0.4,1.6,0.6c2.1,0.4,3.6,0.9,4.5,1.4c0.9,0.5,1.6,1,2,1.7c0.4,0.7,0.6,1.4,0.6,2.3c0,1-0.3,1.9-0.8,2.7
		c-0.5,0.8-1.3,1.5-2.3,1.9c-1,0.4-2.2,0.7-3.7,0.7c-2.6,0-4.5-0.5-5.5-1.5C78.1,116.5,77.5,115.2,77.4,113.6z"/>
	<path fill="#FFFFFF" d="M93,113.6l4.5-0.3c0.1,0.7,0.3,1.3,0.6,1.7c0.5,0.6,1.2,0.9,2.1,0.9c0.7,0,1.2-0.2,1.6-0.5
		c0.4-0.3,0.6-0.7,0.6-1.1c0-0.4-0.2-0.8-0.5-1.1c-0.3-0.3-1.2-0.6-2.4-0.9c-2.1-0.5-3.6-1.1-4.5-1.9c-0.9-0.8-1.4-1.8-1.4-3
		c0-0.8,0.2-1.5,0.7-2.3c0.5-0.7,1.2-1.3,2.1-1.7c0.9-0.4,2.2-0.6,3.8-0.6c2,0,3.5,0.4,4.5,1.1c1,0.7,1.7,1.9,1.9,3.5l-4.5,0.3
		c-0.1-0.7-0.4-1.2-0.8-1.5c-0.4-0.3-0.9-0.5-1.6-0.5c-0.6,0-1,0.1-1.3,0.4c-0.3,0.2-0.4,0.5-0.4,0.9c0,0.2,0.1,0.5,0.3,0.7
		c0.2,0.2,0.8,0.4,1.6,0.6c2.1,0.4,3.6,0.9,4.5,1.4c0.9,0.5,1.6,1,2,1.7c0.4,0.7,0.6,1.4,0.6,2.3c0,1-0.3,1.9-0.8,2.7
		c-0.5,0.8-1.3,1.5-2.3,1.9c-1,0.4-2.2,0.7-3.7,0.7c-2.6,0-4.4-0.5-5.5-1.5C93.7,116.5,93.1,115.2,93,113.6z"/>
	<path fill="#FFFFFF" d="M109.6,103.3h4.8v15.5h-4.8V103.3z"/>
	<path fill="#FFFFFF" d="M116.3,111c0-2.5,0.7-4.5,2.1-5.9c1.4-1.4,3.4-2.1,5.9-2.1c2.6,0,4.6,0.7,6,2.1c1.4,1.4,2.1,3.3,2.1,5.8
		c0,1.8-0.3,3.3-0.9,4.4c-0.6,1.2-1.5,2.1-2.6,2.7c-1.2,0.6-2.6,1-4.3,1c-1.7,0-3.2-0.3-4.3-0.8c-1.1-0.6-2.1-1.4-2.8-2.6
		C116.7,114.4,116.3,112.9,116.3,111z M121.1,111.1c0,1.6,0.3,2.7,0.9,3.4c0.6,0.7,1.4,1,2.4,1c1,0,1.8-0.3,2.4-1
		c0.6-0.7,0.8-1.9,0.8-3.6c0-1.5-0.3-2.5-0.9-3.2c-0.6-0.7-1.4-1-2.4-1c-1,0-1.7,0.3-2.3,1C121.4,108.4,121.1,109.5,121.1,111.1z"/>
	<path fill="#FFFFFF" d="M134.5,103.3h4.5l5.8,8.6v-8.6h4.5v15.5h-4.5l-5.8-8.5v8.5h-4.5V103.3z"/>
	<path fill="#FFFFFF" d="M161.6,116.2h-5.4l-0.8,2.6h-4.9l5.8-15.5h5.2l5.8,15.5h-5L161.6,116.2z M160.6,112.9l-1.7-5.6l-1.7,5.6
		H160.6z"/>
	<path fill="#FFFFFF" d="M168.9,103.3h4.8V115h7.5v3.8h-12.2V103.3z"/>
</g>
</svg>
